<svg version="1.1" id="Layer_1" xmlns="http://www.w3.org/2000/svg" xmlns:xlink="http://www.w3.org/1999/xlink" x="0px" y="0px"
	 width="100%" viewBox="0 0 204 204" enable-background="new 0 0 204 204" xml:space="preserve">
<path fill="#2C2F3B" opacity="1.000000" stroke="none" 
	d="
M91.000000,1.000000 
	C97.687645,1.000000 104.375290,1.000000 111.787292,1.297965 
	C118.958000,2.817342 125.506638,3.655214 131.829056,5.341334 
	C144.352005,8.681067 155.528458,14.759399 165.682999,22.862587 
	C182.801331,36.522789 194.857697,53.557968 200.895599,74.686577 
	C202.435547,80.075279 203.640915,85.559608 205.000000,91.000000 
	C205.000000,98.687576 205.000000,106.375153 204.633621,114.674919 
	C203.247284,120.268555 202.599121,125.361198 201.147827,130.213638 
	C190.666367,165.258957 167.984055,188.666504 133.286530,200.162903 
	C126.411537,202.440826 119.106644,203.421234 112.000000,205.000000 
	C104.979050,205.000000 97.958107,205.000000 90.332169,204.638626 
	C87.944458,203.888947 86.162422,203.497482 84.378922,203.112793 
	C44.871799,194.591888 18.547178,171.239944 5.693707,132.904877 
	C3.736704,127.068161 2.545440,120.974709 1.000000,115.000000 
	C1.000000,107.312424 1.000000,99.624847 1.367930,91.323006 
	C4.746558,71.758408 11.265002,54.571686 23.730740,39.407543 
	C37.071846,23.178551 53.087528,11.683338 73.164307,5.790702 
	C79.069527,4.057488 85.052605,2.589526 91.000000,1.000000 
M110.597778,40.941284 
	C111.742714,40.909748 113.268173,40.381210 113.974754,40.922199 
	C122.729477,47.625229 127.632744,56.914089 130.858261,67.168518 
	C138.755600,92.275505 139.076614,117.546127 132.344620,142.976151 
	C131.942535,144.495087 132.866501,146.365051 133.173401,148.071671 
	C134.346039,146.748764 136.284286,145.570847 136.566711,144.079376 
	C138.358047,134.619354 140.399994,125.141403 141.197693,115.572533 
	C142.737350,97.102699 140.268890,78.995712 133.606293,61.635689 
	C129.636749,51.292652 124.271156,41.826717 114.669701,35.412144 
	C113.541824,34.658627 113.151672,32.672745 112.614075,31.187729 
	C110.978943,26.670910 106.926460,23.689106 102.316879,23.966511 
	C97.462212,24.258667 94.145325,26.832394 92.827568,31.489809 
	C91.587456,35.872791 92.814484,39.903103 96.389946,42.656662 
	C100.757889,46.020527 104.797165,45.434723 110.597778,40.941284 
M111.174171,153.216553 
	C118.638634,155.079269 126.021820,157.450638 133.590668,158.660172 
	C141.003677,159.844803 148.174438,157.492767 155.252487,155.190720 
	C157.693604,154.396774 160.599945,154.232086 163.132538,154.683868 
	C168.756012,155.687012 173.782333,152.899948 175.509735,147.213654 
	C177.013458,142.263657 174.008591,136.787445 168.769409,134.929688 
	C163.797348,133.166656 157.863800,135.712006 156.205719,140.890625 
	C155.347137,143.572174 155.715103,146.646439 155.490982,150.133820 
	C147.198746,154.014267 137.897812,154.002121 128.671860,152.544037 
	C100.454231,148.084412 76.854813,134.627090 56.595310,114.816544 
	C55.437950,113.684837 53.411137,113.442291 51.788967,112.785927 
	C52.311226,114.443748 52.358860,116.559479 53.439014,117.679070 
	C57.801620,122.200996 62.048809,127.028618 67.130104,130.625107 
	C80.474609,140.070206 94.617020,148.182846 111.174171,153.216553 
M32.002186,151.457504 
	C35.575180,155.077484 40.142906,156.446915 44.159744,153.536484 
	C46.876751,151.567871 49.266270,147.662277 49.678825,144.357925 
	C50.249607,139.786255 47.112980,136.151627 42.430595,134.862732 
	C38.878777,133.885071 38.142422,131.571793 39.460880,128.849258 
	C43.191910,121.144859 46.144604,112.691864 51.432117,106.180847 
	C69.071205,84.460114 92.306747,71.075172 119.192154,63.751484 
	C120.887260,63.289734 122.219383,61.495464 123.720375,60.321114 
	C121.786980,60.071201 119.690811,59.203621 117.944565,59.663834 
	C90.903740,66.790337 67.687347,80.353172 49.282284,101.575165 
	C41.223919,110.866875 34.807407,121.103378 34.401291,134.028915 
	C34.369972,135.025787 33.612427,136.126389 32.923607,136.955429 
	C28.531151,142.242142 28.252918,144.653214 32.002186,151.457504 
M138.930161,61.003597 
	C141.902237,61.355118 144.900665,61.558876 147.841965,62.083050 
	C162.728012,64.735916 170.087509,75.457375 164.579590,89.993134 
	C162.037949,96.700729 157.427399,102.613457 153.905273,108.969917 
	C153.226791,110.194420 153.248459,111.806870 152.947144,113.240349 
	C154.416092,112.751297 156.602341,112.712402 157.237595,111.700150 
	C161.363541,105.125755 166.299255,98.744865 168.841125,91.548698 
	C177.230682,67.797615 158.903473,56.772026 140.155396,56.846645 
	C137.639618,56.856663 136.231888,58.048916 138.930161,61.003597 
M80.145889,62.995815 
	C81.028275,61.946793 81.910667,60.897766 82.793053,59.848740 
	C81.599602,59.148884 80.428764,57.890011 79.209000,57.840668 
	C71.773697,57.539902 64.144363,56.468395 56.942581,57.728168 
	C51.206654,58.731525 45.143929,61.716965 40.718670,65.546883 
	C31.987570,73.103378 32.607845,93.177345 40.993134,101.260597 
	C41.601707,101.847244 42.961193,101.654922 43.971554,101.824768 
	C44.123779,100.781181 44.671883,99.597099 44.359997,98.718216 
	C42.978447,94.825081 41.094818,91.099678 39.860210,87.166870 
	C36.600460,76.783012 41.506634,66.432434 52.940876,63.143520 
	C61.735935,60.613731 70.651939,60.222282 80.145889,62.995815 
M127.129814,161.795471 
	C125.754021,162.603760 124.106651,163.157227 123.059212,164.273575 
	C120.905632,166.568878 119.311569,169.410873 117.065025,171.593246 
	C109.286766,179.149338 99.768501,180.459839 92.358955,174.803574 
	C89.124802,172.334717 86.037880,169.373993 83.746552,166.043320 
	C80.756424,161.696884 78.742706,156.690750 76.053909,152.118393 
	C75.128334,150.544434 73.437576,149.420441 72.096367,148.090897 
	C72.081856,150.017746 71.417526,152.258850 72.169960,153.814819 
	C74.839287,159.334763 77.775681,164.757294 81.044205,169.943665 
	C82.956726,172.978378 85.203278,176.274353 88.138756,178.112930 
	C102.702972,187.234894 120.698769,181.181107 127.657341,165.135590 
	C128.006226,164.331131 127.685432,163.236237 127.129814,161.795471 
M95.941437,110.388557 
	C99.331238,114.832047 102.822029,115.994270 106.454094,113.709465 
	C109.858688,111.567772 110.912796,108.373047 109.612465,104.642509 
	C108.370247,101.078682 104.182587,99.181969 100.601830,100.254120 
	C96.656609,101.435402 94.903358,104.763878 95.941437,110.388557 
z"/>
<path fill="#FCFCFD" opacity="1.000000" stroke="none" 
	d="
M205.000000,90.531342 
	C203.640915,85.559608 202.435547,80.075279 200.895599,74.686577 
	C194.857697,53.557968 182.801331,36.522789 165.682999,22.862587 
	C155.528458,14.759399 144.352005,8.681067 131.829056,5.341334 
	C125.506638,3.655214 118.958000,2.817342 112.255821,1.297965 
	C142.925720,1.000000 173.851425,1.000000 205.000000,1.000000 
	C205.000000,30.687189 205.000000,60.374935 205.000000,90.531342 
z"/>
<path fill="#FDFDFD" opacity="1.000000" stroke="none" 
	d="
M112.468658,205.000000 
	C119.106644,203.421234 126.411537,202.440826 133.286530,200.162903 
	C167.984055,188.666504 190.666367,165.258957 201.147827,130.213638 
	C202.599121,125.361198 203.247284,120.268555 204.633621,115.143555 
	C205.000000,144.928116 205.000000,174.856216 205.000000,205.000000 
	C174.312775,205.000000 143.625046,205.000000 112.468658,205.000000 
z"/>
<path fill="#FDFDFD" opacity="1.000000" stroke="none" 
	d="
M90.531342,1.000000 
	C85.052605,2.589526 79.069527,4.057488 73.164307,5.790702 
	C53.087528,11.683338 37.071846,23.178551 23.730740,39.407543 
	C11.265002,54.571686 4.746558,71.758408 1.367930,90.854370 
	C1.000000,61.073086 1.000000,31.146170 1.000000,1.000000 
	C30.687201,1.000000 60.374943,1.000000 90.531342,1.000000 
z"/>
<path fill="#FDFDFD" opacity="1.000000" stroke="none" 
	d="
M1.000000,115.468658 
	C2.545440,120.974709 3.736704,127.068161 5.693707,132.904877 
	C18.547178,171.239944 44.871799,194.591888 84.378922,203.112793 
	C86.162422,203.497482 87.944458,203.888947 89.863586,204.638626 
	C60.406013,205.000000 30.812029,205.000000 1.000000,205.000000 
	C1.000000,175.312790 1.000000,145.625061 1.000000,115.468658 
z"/>
<path fill="#98DFEC" opacity="1.000000" stroke="none" 
	d="
M110.297073,41.161819 
	C104.797165,45.434723 100.757889,46.020527 96.389946,42.656662 
	C92.814484,39.903103 91.587456,35.872791 92.827568,31.489809 
	C94.145325,26.832394 97.462212,24.258667 102.316879,23.966511 
	C106.926460,23.689106 110.978943,26.670910 112.614075,31.187729 
	C113.151672,32.672745 113.541824,34.658627 114.669701,35.412144 
	C124.271156,41.826717 129.636749,51.292652 133.606293,61.635689 
	C140.268890,78.995712 142.737350,97.102699 141.197693,115.572533 
	C140.399994,125.141403 138.358047,134.619354 136.566711,144.079376 
	C136.284286,145.570847 134.346039,146.748764 133.173401,148.071671 
	C132.866501,146.365051 131.942535,144.495087 132.344620,142.976151 
	C139.076614,117.546127 138.755600,92.275505 130.858261,67.168518 
	C127.632744,56.914089 122.729477,47.625229 113.974754,40.922199 
	C113.268173,40.381210 111.742714,40.909748 110.297073,41.161819 
M107.216850,31.646194 
	C105.278976,30.620201 102.878914,28.355995 101.514153,28.865410 
	C99.583199,29.586168 97.527908,32.219349 97.212936,34.291553 
	C96.974190,35.862312 98.974579,38.570923 100.671432,39.480221 
	C104.808098,41.696938 108.367981,37.888206 107.216850,31.646194 
z"/>
<path fill="#97DEEC" opacity="1.000000" stroke="none" 
	d="
M110.789177,153.109955 
	C94.617020,148.182846 80.474609,140.070206 67.130104,130.625107 
	C62.048809,127.028618 57.801620,122.200996 53.439014,117.679070 
	C52.358860,116.559479 52.311226,114.443748 51.788971,112.785927 
	C53.411137,113.442291 55.437950,113.684837 56.595310,114.816544 
	C76.854813,134.627090 100.454231,148.084412 128.671860,152.544037 
	C137.897812,154.002121 147.198746,154.014267 155.490982,150.133820 
	C155.715103,146.646439 155.347137,143.572174 156.205719,140.890625 
	C157.863800,135.712006 163.797348,133.166656 168.769409,134.929688 
	C174.008591,136.787445 177.013458,142.263657 175.509735,147.213654 
	C173.782333,152.899948 168.756012,155.687012 163.132538,154.683868 
	C160.599945,154.232086 157.693604,154.396774 155.252487,155.190720 
	C148.174438,157.492767 141.003677,159.844803 133.590668,158.660172 
	C126.021820,157.450638 118.638634,155.079269 110.789177,153.109955 
M160.426727,142.217789 
	C161.167816,144.681519 161.365753,147.589828 162.870605,149.428421 
	C163.667740,150.402344 167.346176,150.283524 168.619522,149.270233 
	C170.091827,148.098633 171.175842,145.313141 170.971954,143.382126 
	C170.457321,138.507675 165.258286,137.664917 160.426727,142.217789 
z"/>
<path fill="#99E1EF" opacity="1.000000" stroke="none" 
	d="
M31.750971,151.172516 
	C28.252918,144.653214 28.531151,142.242142 32.923607,136.955429 
	C33.612427,136.126389 34.369972,135.025787 34.401291,134.028915 
	C34.807407,121.103378 41.223919,110.866875 49.282284,101.575165 
	C67.687347,80.353172 90.903740,66.790337 117.944565,59.663834 
	C119.690811,59.203621 121.786980,60.071201 123.720375,60.321114 
	C122.219383,61.495464 120.887260,63.289734 119.192154,63.751484 
	C92.306747,71.075172 69.071205,84.460114 51.432117,106.180847 
	C46.144604,112.691864 43.191910,121.144859 39.460880,128.849258 
	C38.142422,131.571793 38.878777,133.885071 42.430595,134.862732 
	C47.112980,136.151627 50.249607,139.786255 49.678825,144.357925 
	C49.266270,147.662277 46.876751,151.567871 44.159744,153.536484 
	C40.142906,156.446915 35.575180,155.077484 31.750971,151.172516 
M45.079197,142.936508 
	C42.415165,138.836670 39.274124,137.809937 36.208393,140.036865 
	C33.516850,141.991959 32.847279,146.088791 35.370682,148.270798 
	C36.792747,149.500473 39.938656,150.719635 40.956398,150.008682 
	C42.895584,148.654037 43.866158,145.912811 45.079197,142.936508 
z"/>
<path fill="#97DEEC" opacity="1.000000" stroke="none" 
	d="
M138.558563,60.835281 
	C136.231888,58.048916 137.639618,56.856663 140.155396,56.846645 
	C158.903473,56.772026 177.230682,67.797615 168.841125,91.548698 
	C166.299255,98.744865 161.363541,105.125755 157.237595,111.700150 
	C156.602341,112.712402 154.416092,112.751297 152.947144,113.240349 
	C153.248459,111.806870 153.226791,110.194420 153.905273,108.969917 
	C157.427399,102.613457 162.037949,96.700729 164.579590,89.993134 
	C170.087509,75.457375 162.728012,64.735916 147.841965,62.083050 
	C144.900665,61.558876 141.902237,61.355118 138.558563,60.835281 
z"/>
<path fill="#99E0EF" opacity="1.000000" stroke="none" 
	d="
M79.862534,62.822620 
	C70.651939,60.222282 61.735935,60.613731 52.940876,63.143520 
	C41.506634,66.432434 36.600460,76.783012 39.860210,87.166870 
	C41.094818,91.099678 42.978447,94.825081 44.359997,98.718216 
	C44.671883,99.597099 44.123779,100.781181 43.971554,101.824768 
	C42.961193,101.654922 41.601707,101.847244 40.993134,101.260597 
	C32.607845,93.177345 31.987570,73.103378 40.718670,65.546883 
	C45.143929,61.716965 51.206654,58.731525 56.942581,57.728168 
	C64.144363,56.468395 71.773697,57.539902 79.209000,57.840668 
	C80.428764,57.890011 81.599602,59.148884 82.793053,59.848740 
	C81.910667,60.897766 81.028275,61.946793 79.862534,62.822620 
z"/>
<path fill="#99E0EE" opacity="1.000000" stroke="none" 
	d="
M127.403137,162.036026 
	C127.685432,163.236237 128.006226,164.331131 127.657341,165.135590 
	C120.698769,181.181107 102.702972,187.234894 88.138756,178.112930 
	C85.203278,176.274353 82.956726,172.978378 81.044205,169.943665 
	C77.775681,164.757294 74.839287,159.334763 72.169960,153.814819 
	C71.417526,152.258850 72.081856,150.017746 72.096367,148.090897 
	C73.437576,149.420441 75.128334,150.544434 76.053909,152.118393 
	C78.742706,156.690750 80.756424,161.696884 83.746552,166.043320 
	C86.037880,169.373993 89.124802,172.334717 92.358955,174.803574 
	C99.768501,180.459839 109.286766,179.149338 117.065025,171.593246 
	C119.311569,169.410873 120.905632,166.568878 123.059212,164.273575 
	C124.106651,163.157227 125.754021,162.603760 127.403137,162.036026 
z"/>
<path fill="#9BE4F3" opacity="1.000000" stroke="none" 
	d="
M95.786598,110.039085 
	C94.903358,104.763878 96.656609,101.435402 100.601830,100.254120 
	C104.182587,99.181969 108.370247,101.078682 109.612465,104.642509 
	C110.912796,108.373047 109.858688,111.567772 106.454094,113.709465 
	C102.822029,115.994270 99.331238,114.832047 95.786598,110.039085 
z"/>
<path fill="#2D313D" opacity="1.000000" stroke="none" 
	d="
M107.505310,31.921061 
	C108.367981,37.888206 104.808098,41.696938 100.671432,39.480221 
	C98.974579,38.570923 96.974190,35.862312 97.212936,34.291553 
	C97.527908,32.219349 99.583199,29.586168 101.514153,28.865410 
	C102.878914,28.355995 105.278976,30.620201 107.505310,31.921061 
z"/>
<path fill="#2E333F" opacity="1.000000" stroke="none" 
	d="
M160.616852,141.861465 
	C165.258286,137.664917 170.457321,138.507675 170.971954,143.382126 
	C171.175842,145.313141 170.091827,148.098633 168.619522,149.270233 
	C167.346176,150.283524 163.667740,150.402344 162.870605,149.428421 
	C161.365753,147.589828 161.167816,144.681519 160.616852,141.861465 
z"/>
<path fill="#2E323F" opacity="1.000000" stroke="none" 
	d="
M45.159042,143.341888 
	C43.866158,145.912811 42.895584,148.654037 40.956398,150.008682 
	C39.938656,150.719635 36.792747,149.500473 35.370682,148.270798 
	C32.847279,146.088791 33.516850,141.991959 36.208393,140.036865 
	C39.274124,137.809937 42.415165,138.836670 45.159042,143.341888 
z"/>
</svg>