<svg version="1.1" id="Layer_1" xmlns="http://www.w3.org/2000/svg" xmlns:xlink="http://www.w3.org/1999/xlink" x="0px" y="0px"
	 width="100%" viewBox="0 0 225 225" enable-background="new 0 0 225 225" xml:space="preserve">
<path fill="#2B2D3A" opacity="1.000000" stroke="none" 
	d="
M226.000000,124.000000 
	C226.000000,157.983261 226.000000,191.966522 226.000000,225.974884 
	C151.053665,225.974884 76.107323,225.974884 1.080487,225.974884 
	C1.080487,151.090652 1.080487,76.181198 1.080487,1.135868 
	C75.999847,1.135868 150.999878,1.135868 226.000000,1.135868 
	C226.000000,38.099064 226.000000,75.080872 225.681488,112.943527 
	C217.545456,112.306938 212.122177,113.010040 211.130814,116.000000 
	C216.157471,116.000000 221.078735,116.000000 226.000000,116.000000 
	C226.000000,117.714355 226.000000,119.428719 225.533203,121.571976 
	C220.395966,122.000877 215.725540,122.000877 211.055115,122.000877 
	C211.070190,122.667252 211.085266,123.333626 211.100342,124.000000 
	C216.066895,124.000000 221.033447,124.000000 226.000000,124.000000 
M173.112350,96.793770 
	C177.078888,109.351341 176.424500,122.027702 173.611984,134.759552 
	C178.992264,128.803040 179.456863,108.236160 174.962418,95.264458 
	C175.027695,94.529419 175.092972,93.794373 175.768021,93.121849 
	C176.175034,93.095039 176.582047,93.068230 177.505417,93.414307 
	C178.540848,93.790993 179.583313,94.509583 180.610535,94.488434 
	C186.892334,94.359001 191.142044,98.829796 189.580673,104.866051 
	C188.652100,108.455917 186.414032,111.709129 184.745331,115.104179 
	C184.261017,116.089577 183.709808,117.042107 183.189270,118.009705 
	C183.589478,118.221481 183.989670,118.433250 184.389877,118.645020 
	C188.539642,114.652199 191.478470,109.868797 191.977524,103.935898 
	C192.688873,95.479073 184.354477,89.375565 175.226547,91.977592 
	C174.899918,91.937416 174.412277,92.022041 174.270203,91.838791 
	C170.783081,87.340828 167.597458,82.567726 163.736374,78.422836 
	C162.327225,76.910103 159.327545,76.878967 157.053497,76.171898 
	C156.401947,78.323799 154.798416,80.745209 155.314072,82.566650 
	C156.162491,85.563416 159.090698,85.933739 161.909286,84.671875 
	C162.774216,84.284668 163.516052,83.622520 164.945816,82.661972 
	C167.376038,86.252213 169.665375,89.634323 172.002548,93.660645 
	C172.354996,94.435593 172.707428,95.210541 173.112350,96.793770 
M131.840576,112.274002 
	C126.059608,97.851944 129.639725,93.157555 145.665604,94.016479 
	C147.072586,94.091896 148.512238,93.557312 149.936722,93.306068 
	C143.629135,90.412354 137.537399,90.331139 131.773087,93.734062 
	C127.764671,96.100403 126.121376,99.952042 127.043411,104.394485 
	C127.718155,107.645462 127.201721,111.974434 132.052734,113.667198 
	C129.647919,119.548767 126.972214,125.342369 125.014992,131.369278 
	C124.477074,133.025742 125.579048,136.591843 126.835182,137.118286 
	C128.549973,137.836960 131.849335,137.152252 133.108673,135.801010 
	C134.055145,134.785461 133.225525,131.630814 132.472321,129.708237 
	C132.062836,128.662979 130.162842,128.201660 128.555069,127.252609 
	C135.305862,107.350578 151.959427,99.670540 169.561584,92.931519 
	C168.343521,92.441940 167.413132,92.373581 166.557968,92.595322 
	C154.680710,95.675079 144.522171,101.717033 135.852493,110.370735 
	C134.758102,111.463112 133.258621,112.149651 131.840576,112.274002 
M22.264587,140.935379 
	C24.500164,150.542480 29.023573,152.698914 37.729950,148.024368 
	C40.777267,146.388229 43.504833,144.156540 46.048756,142.421616 
	C50.278252,144.834290 54.217869,147.703018 58.606174,149.434769 
	C64.726784,151.850143 69.245758,149.037003 70.031662,142.473969 
	C70.576080,137.927536 70.136337,133.263260 70.136337,128.608627 
	C73.473053,126.855728 77.204933,125.341728 80.438187,123.106468 
	C87.834854,117.992920 87.720741,111.916840 80.175056,106.932762 
	C76.891602,104.763977 73.195732,103.219543 70.122711,101.618462 
	C70.122711,97.057655 70.476517,92.725372 70.044136,88.473015 
	C69.297852,81.133591 64.556343,78.187149 57.797009,81.023804 
	C53.728905,82.731033 50.079628,85.436256 46.394035,87.603683 
	C42.296558,85.334167 38.152847,82.487114 33.599541,80.661797 
	C28.334791,78.551270 24.245922,80.775200 23.022503,86.317657 
	C22.218580,89.959656 22.170145,93.923958 22.625887,97.640625 
	C23.009823,100.771706 22.118595,102.181717 19.364758,103.285454 
	C16.763741,104.327911 14.173857,105.616333 11.918282,107.261589 
	C5.142742,112.203812 5.118232,118.207878 11.996150,122.962967 
	C15.352875,125.283661 19.221308,126.864212 22.884468,128.793655 
	C22.645617,132.502792 22.401733,136.290024 22.264587,140.935379 
M148.747757,130.746017 
	C154.373398,133.178085 160.213379,135.220566 165.558990,138.161591 
	C170.091370,140.655212 174.428650,140.664719 179.181122,139.699936 
	C182.862152,138.952682 186.761444,139.026215 190.288773,137.885071 
	C192.014771,137.326691 194.239365,134.799744 194.191742,133.225723 
	C194.141006,131.549011 191.918381,129.083649 190.180344,128.587784 
	C188.835754,128.204193 186.450989,130.028549 185.154526,131.444412 
	C184.354660,132.317932 184.729202,134.266815 184.531006,136.169556 
	C167.476517,140.267868 154.214340,131.444092 140.504242,123.324959 
	C143.054184,125.661720 145.604126,127.998489 148.747757,130.746017 
M112.554504,119.407936 
	C110.525742,118.563347 108.496971,117.718750 106.167191,116.748840 
	C106.068962,115.251839 105.932602,113.173752 105.796249,111.095673 
	C105.301292,110.966766 104.806335,110.837868 104.311386,110.708961 
	C103.699791,112.984772 103.088196,115.260582 102.521553,117.369118 
	C100.484207,117.731422 98.640175,118.059349 96.796143,118.387276 
	C96.837196,118.869911 96.878258,119.352547 96.919312,119.835182 
	C98.898849,120.058784 100.878395,120.282387 102.716850,120.490059 
	C103.189140,122.940826 103.605499,125.101379 104.021866,127.261940 
	C104.592781,127.167580 105.163696,127.073212 105.734619,126.978844 
	C105.929832,124.809258 106.125053,122.639671 106.322777,120.442245 
	C108.425041,120.262131 110.214920,120.108780 112.554504,119.407936 
M147.832535,143.631638 
	C151.128036,146.182800 154.095901,149.506866 157.806122,151.079758 
	C161.977036,152.847916 166.375412,150.030182 167.777557,145.568436 
	C163.092926,148.748886 158.260468,151.472702 153.784821,146.906387 
	C150.366013,143.418320 147.902374,138.994080 145.013840,134.986267 
	C144.661926,135.146393 144.309998,135.306519 143.958084,135.466644 
	C145.106201,137.993896 146.254318,140.521149 147.832535,143.631638 
M162.242294,113.286674 
	C160.507980,113.183014 158.661453,112.702950 157.097061,113.169304 
	C156.508362,113.344788 155.926743,116.195045 156.499451,116.965950 
	C157.270599,118.003967 159.966309,119.044281 160.414902,118.611290 
	C161.585388,117.481491 161.982269,115.550201 162.242294,113.286674 
M168.711624,143.474030 
	C168.886154,143.523621 169.060699,143.573212 169.235229,143.622803 
	C169.102753,143.654022 168.970261,143.685242 168.711624,143.474030 
z"/>
<path fill="#E2E2E3" opacity="1.000000" stroke="none" 
	d="
M226.000000,115.625000 
	C221.078735,116.000000 216.157471,116.000000 211.130814,116.000000 
	C212.122177,113.010040 217.545456,112.306938 225.681488,113.412186 
	C226.000000,113.750000 226.000000,114.500000 226.000000,115.625000 
z"/>
<path fill="#FFFFFF" opacity="1.000000" stroke="none" 
	d="
M226.000000,123.666672 
	C221.033447,124.000000 216.066895,124.000000 211.100342,124.000000 
	C211.085266,123.333626 211.070190,122.667252 211.055115,122.000877 
	C215.725540,122.000877 220.395966,122.000877 225.533203,122.000443 
	C226.000000,122.444443 226.000000,122.888893 226.000000,123.666672 
z"/>
<path fill="#5DD0EE" opacity="1.000000" stroke="none" 
	d="
M22.211220,140.506317 
	C22.401733,136.290024 22.645617,132.502792 22.884468,128.793655 
	C19.221308,126.864212 15.352875,125.283661 11.996150,122.962967 
	C5.118232,118.207878 5.142742,112.203812 11.918282,107.261589 
	C14.173857,105.616333 16.763741,104.327911 19.364758,103.285454 
	C22.118595,102.181717 23.009823,100.771706 22.625887,97.640625 
	C22.170145,93.923958 22.218580,89.959656 23.022503,86.317657 
	C24.245922,80.775200 28.334791,78.551270 33.599541,80.661797 
	C38.152847,82.487114 42.296558,85.334167 46.394035,87.603683 
	C50.079628,85.436256 53.728905,82.731033 57.797009,81.023804 
	C64.556343,78.187149 69.297852,81.133591 70.044136,88.473015 
	C70.476517,92.725372 70.122711,97.057655 70.122711,101.618462 
	C73.195732,103.219543 76.891602,104.763977 80.175056,106.932762 
	C87.720741,111.916840 87.834854,117.992920 80.438187,123.106468 
	C77.204933,125.341728 73.473053,126.855728 70.136337,128.608627 
	C70.136337,133.263260 70.576080,137.927536 70.031662,142.473969 
	C69.245758,149.037003 64.726784,151.850143 58.606174,149.434769 
	C54.217869,147.703018 50.278252,144.834290 46.048756,142.421616 
	C43.504833,144.156540 40.777267,146.388229 37.729950,148.024368 
	C29.023573,152.698914 24.500164,150.542480 22.211220,140.506317 
M54.418091,126.237778 
	C55.493999,124.565369 56.648521,122.937805 57.632626,121.213013 
	C62.708912,112.316063 56.785263,102.831627 46.541424,102.117386 
	C38.727074,101.572533 36.247234,106.545441 33.510014,111.921936 
	C31.711197,115.455223 36.405762,127.231895 40.275032,127.589020 
	C44.765022,128.003433 49.370590,127.165543 54.418091,126.237778 
M75.822998,108.517632 
	C73.448334,107.505493 71.073669,106.493355 69.078156,105.642822 
	C64.304337,112.268921 64.603416,118.330391 69.057343,124.495979 
	C74.069435,122.726364 79.741035,121.358414 81.549515,115.811905 
	C82.063675,114.235008 78.273949,111.254799 75.822998,108.517632 
M56.944061,131.017822 
	C54.066402,133.334290 51.188744,135.650742 47.619633,138.523804 
	C51.940319,141.457840 54.379971,143.452423 57.109856,144.899445 
	C63.189072,148.121857 66.113953,146.476212 66.801323,139.747711 
	C67.698151,130.968872 66.157555,129.472107 56.944061,131.017822 
M21.740309,106.255089 
	C18.974894,107.758163 16.001760,108.979469 13.492175,110.829567 
	C9.612988,113.689354 9.526516,116.435593 13.353052,119.228882 
	C16.470350,121.504440 20.088194,123.094299 23.855639,125.195435 
	C25.212725,121.691109 26.857685,119.144379 27.076767,116.480385 
	C27.408152,112.450813 26.563221,108.423317 21.740309,106.255089 
M32.902744,99.652580 
	C38.662582,99.706757 40.002647,94.472717 43.685863,90.957207 
	C40.971416,89.020676 38.718845,87.071144 36.168381,85.660042 
	C29.251446,81.833107 26.090469,83.751839 25.945457,91.645317 
	C25.927109,92.644119 26.015749,93.646126 25.971865,94.642998 
	C25.779093,99.021729 27.741249,100.818748 32.902744,99.652580 
M65.885834,99.846992 
	C66.013718,95.901466 66.442612,91.928398 66.085709,88.027222 
	C65.978889,86.859650 63.827698,85.326324 62.353867,84.933647 
	C56.419323,83.352501 53.168892,87.777458 49.509773,90.773392 
	C52.667667,98.016769 58.367290,100.466011 65.885834,99.846992 
M36.630547,144.479950 
	C38.939583,142.776932 41.248623,141.073898 43.154854,139.667969 
	C39.966305,131.935547 33.552082,131.222931 27.249962,129.636307 
	C26.849100,130.906509 26.406340,131.811752 26.299355,132.755081 
	C26.094790,134.558884 25.998394,136.384552 26.002783,138.200790 
	C26.022591,146.399536 28.447287,148.013229 36.630547,144.479950 
z"/>
<path fill="#94D8E4" opacity="1.000000" stroke="none" 
	d="
M131.946823,113.024216 
	C133.258621,112.149651 134.758102,111.463112 135.852493,110.370735 
	C144.522171,101.717033 154.680710,95.675079 166.557968,92.595322 
	C167.413132,92.373581 168.343521,92.441940 169.561584,92.931519 
	C151.959427,99.670540 135.305862,107.350578 128.555069,127.252609 
	C130.162842,128.201660 132.062836,128.662979 132.472321,129.708237 
	C133.225525,131.630814 134.055145,134.785461 133.108673,135.801010 
	C131.849335,137.152252 128.549973,137.836960 126.835182,137.118286 
	C125.579048,136.591843 124.477074,133.025742 125.014992,131.369278 
	C126.972214,125.342369 129.647919,119.548767 132.021835,113.314529 
	C131.990936,112.961853 131.946823,113.024216 131.946823,113.024216 
z"/>
<path fill="#8DCDD9" opacity="1.000000" stroke="none" 
	d="
M148.450912,130.540634 
	C145.604126,127.998489 143.054184,125.661720 140.504242,123.324959 
	C154.214340,131.444092 167.476517,140.267868 184.531006,136.169556 
	C184.729202,134.266815 184.354660,132.317932 185.154526,131.444412 
	C186.450989,130.028549 188.835754,128.204193 190.180344,128.587784 
	C191.918381,129.083649 194.141006,131.549011 194.191742,133.225723 
	C194.239365,134.799744 192.014771,137.326691 190.288773,137.885071 
	C186.761444,139.026215 182.862152,138.952682 179.181122,139.699936 
	C174.428650,140.664719 170.091370,140.655212 165.558990,138.161591 
	C160.213379,135.220566 154.373398,133.178085 148.450912,130.540634 
z"/>
<path fill="#93D7E3" opacity="1.000000" stroke="none" 
	d="
M176.989059,93.041420 
	C176.582047,93.068230 176.175034,93.095039 175.062775,93.072617 
	C173.556580,93.021057 172.755630,93.018745 171.954697,93.016434 
	C169.665375,89.634323 167.376038,86.252213 164.945816,82.661972 
	C163.516052,83.622520 162.774216,84.284668 161.909286,84.671875 
	C159.090698,85.933739 156.162491,85.563416 155.314072,82.566650 
	C154.798416,80.745209 156.401947,78.323799 157.053497,76.171898 
	C159.327545,76.878967 162.327225,76.910103 163.736374,78.422836 
	C167.597458,82.567726 170.783081,87.340828 174.270203,91.838791 
	C174.412277,92.022041 174.899918,91.937416 175.802734,92.119476 
	C176.639343,92.476753 176.842728,92.736771 176.989059,93.041420 
z"/>
<path fill="#92D5E1" opacity="1.000000" stroke="none" 
	d="
M132.021683,112.939209 
	C127.201721,111.974434 127.718155,107.645462 127.043411,104.394485 
	C126.121376,99.952042 127.764671,96.100403 131.773087,93.734062 
	C137.537399,90.331139 143.629135,90.412354 149.936722,93.306068 
	C148.512238,93.557312 147.072586,94.091896 145.665604,94.016479 
	C129.639725,93.157555 126.059608,97.851944 131.893707,112.649109 
	C131.946823,113.024216 131.990936,112.961853 132.021683,112.939209 
z"/>
<path fill="#92D4E1" opacity="1.000000" stroke="none" 
	d="
M177.247238,93.227859 
	C176.842728,92.736771 176.639343,92.476753 176.172089,92.122398 
	C184.354477,89.375565 192.688873,95.479073 191.977524,103.935898 
	C191.478470,109.868797 188.539642,114.652199 184.389877,118.645020 
	C183.989670,118.433250 183.589478,118.221481 183.189270,118.009705 
	C183.709808,117.042107 184.261017,116.089577 184.745331,115.104179 
	C186.414032,111.709129 188.652100,108.455917 189.580673,104.866051 
	C191.142044,98.829796 186.892334,94.359001 180.610535,94.488434 
	C179.583313,94.509583 178.540848,93.790993 177.247238,93.227859 
z"/>
<path fill="#93D7E3" opacity="1.000000" stroke="none" 
	d="
M174.963074,96.012070 
	C179.456863,108.236160 178.992264,128.803040 173.611984,134.759552 
	C176.424500,122.027702 177.078888,109.351341 173.403336,96.392509 
	C174.117233,95.998192 174.540161,96.005135 174.963074,96.012070 
z"/>
<path fill="#EFEFF0" opacity="1.000000" stroke="none" 
	d="
M112.279655,119.681679 
	C110.214920,120.108780 108.425041,120.262131 106.322777,120.442245 
	C106.125053,122.639671 105.929832,124.809258 105.734619,126.978844 
	C105.163696,127.073212 104.592781,127.167580 104.021866,127.261940 
	C103.605499,125.101379 103.189140,122.940826 102.716850,120.490059 
	C100.878395,120.282387 98.898849,120.058784 96.919312,119.835182 
	C96.878258,119.352547 96.837196,118.869911 96.796143,118.387276 
	C98.640175,118.059349 100.484207,117.731422 102.521553,117.369118 
	C103.088196,115.260582 103.699791,112.984772 104.311386,110.708961 
	C104.806335,110.837868 105.301292,110.966766 105.796249,111.095673 
	C105.932602,113.173752 106.068962,115.251839 106.167191,116.748840 
	C108.496971,117.718750 110.525742,118.563347 112.279655,119.681679 
z"/>
<path fill="#93D6E2" opacity="1.000000" stroke="none" 
	d="
M147.617493,143.340027 
	C146.254318,140.521149 145.106201,137.993896 143.958084,135.466644 
	C144.309998,135.306519 144.661926,135.146393 145.013840,134.986267 
	C147.902374,138.994080 150.366013,143.418320 153.784821,146.906387 
	C158.260468,151.472702 163.092926,148.748886 167.777557,145.568436 
	C166.375412,150.030182 161.977036,152.847916 157.806122,151.079758 
	C154.095901,149.506866 151.128036,146.182800 147.617493,143.340027 
z"/>
<path fill="#9CE5F2" opacity="1.000000" stroke="none" 
	d="
M162.464966,113.612610 
	C161.982269,115.550201 161.585388,117.481491 160.414902,118.611290 
	C159.966309,119.044281 157.270599,118.003967 156.499451,116.965950 
	C155.926743,116.195045 156.508362,113.344788 157.097061,113.169304 
	C158.661453,112.702950 160.507980,113.183014 162.464966,113.612610 
z"/>
<path fill="#92D4E1" opacity="1.000000" stroke="none" 
	d="
M174.962738,95.638260 
	C174.540161,96.005135 174.117233,95.998192 173.377090,95.988373 
	C172.707428,95.210541 172.354996,94.435593 171.978622,93.338539 
	C172.755630,93.018745 173.556580,93.021057 174.757874,93.041351 
	C175.092972,93.794373 175.027695,94.529419 174.962738,95.638260 
z"/>
<path fill="#93D6E2" opacity="1.000000" stroke="none" 
	d="
M168.774704,143.595245 
	C168.970261,143.685242 169.102753,143.654022 169.235229,143.622803 
	C169.060699,143.573212 168.886154,143.523621 168.774704,143.595245 
z"/>
<path fill="#2D323F" opacity="1.000000" stroke="none" 
	d="
M54.172043,126.554504 
	C49.370590,127.165543 44.765022,128.003433 40.275032,127.589020 
	C36.405762,127.231895 31.711197,115.455223 33.510014,111.921936 
	C36.247234,106.545441 38.727074,101.572533 46.541424,102.117386 
	C56.785263,102.831627 62.708912,112.316063 57.632626,121.213013 
	C56.648521,122.937805 55.493999,124.565369 54.172043,126.554504 
M42.541519,121.397186 
	C45.455040,121.085396 48.778172,121.509850 51.135487,120.198334 
	C52.661583,119.349281 53.915321,115.511948 53.247284,113.821175 
	C52.315388,111.462593 49.665028,108.628189 47.396805,108.276642 
	C45.121098,107.923950 41.619301,109.750862 40.075710,111.730431 
	C37.677391,114.806183 38.796467,118.331642 42.541519,121.397186 
z"/>
<path fill="#2C2E3C" opacity="1.000000" stroke="none" 
	d="
M76.140472,108.717880 
	C78.273949,111.254799 82.063675,114.235008 81.549515,115.811905 
	C79.741035,121.358414 74.069435,122.726364 69.057343,124.495979 
	C64.603416,118.330391 64.304337,112.268921 69.078156,105.642822 
	C71.073669,106.493355 73.448334,107.505493 76.140472,108.717880 
z"/>
<path fill="#2C303E" opacity="1.000000" stroke="none" 
	d="
M57.345901,130.984818 
	C66.157555,129.472107 67.698151,130.968872 66.801323,139.747711 
	C66.113953,146.476212 63.189072,148.121857 57.109856,144.899445 
	C54.379971,143.452423 51.940319,141.457840 47.619633,138.523804 
	C51.188744,135.650742 54.066402,133.334290 57.345901,130.984818 
z"/>
<path fill="#2C2F3D" opacity="1.000000" stroke="none" 
	d="
M22.107925,106.180916 
	C26.563221,108.423317 27.408152,112.450813 27.076767,116.480385 
	C26.857685,119.144379 25.212725,121.691109 23.855639,125.195435 
	C20.088194,123.094299 16.470350,121.504440 13.353052,119.228882 
	C9.526516,116.435593 9.612988,113.689354 13.492175,110.829567 
	C16.001760,108.979469 18.974894,107.758163 22.107925,106.180916 
z"/>
<path fill="#2C2F3D" opacity="1.000000" stroke="none" 
	d="
M32.494759,99.733887 
	C27.741249,100.818748 25.779093,99.021729 25.971865,94.642998 
	C26.015749,93.646126 25.927109,92.644119 25.945457,91.645317 
	C26.090469,83.751839 29.251446,81.833107 36.168381,85.660042 
	C38.718845,87.071144 40.971416,89.020676 43.685863,90.957207 
	C40.002647,94.472717 38.662582,99.706757 32.494759,99.733887 
z"/>
<path fill="#2C303D" opacity="1.000000" stroke="none" 
	d="
M65.673645,100.191284 
	C58.367290,100.466011 52.667667,98.016769 49.509773,90.773392 
	C53.168892,87.777458 56.419323,83.352501 62.353867,84.933647 
	C63.827698,85.326324 65.978889,86.859650 66.085709,88.027222 
	C66.442612,91.928398 66.013718,95.901466 65.673645,100.191284 
z"/>
<path fill="#2C2F3C" opacity="1.000000" stroke="none" 
	d="
M36.291794,144.681610 
	C28.447287,148.013229 26.022591,146.399536 26.002783,138.200790 
	C25.998394,136.384552 26.094790,134.558884 26.299355,132.755081 
	C26.406340,131.811752 26.849100,130.906509 27.249962,129.636307 
	C33.552082,131.222931 39.966305,131.935547 43.154854,139.667969 
	C41.248623,141.073898 38.939583,142.776932 36.291794,144.681610 
z"/>
<path fill="#5ED5F5" opacity="1.000000" stroke="none" 
	d="
M42.204281,121.168427 
	C38.796467,118.331642 37.677391,114.806183 40.075710,111.730431 
	C41.619301,109.750862 45.121098,107.923950 47.396805,108.276642 
	C49.665028,108.628189 52.315388,111.462593 53.247284,113.821175 
	C53.915321,115.511948 52.661583,119.349281 51.135487,120.198334 
	C48.778172,121.509850 45.455040,121.085396 42.204281,121.168427 
z"/>
</svg>