<svg version="1.1" id="Layer_1" xmlns="http://www.w3.org/2000/svg" xmlns:xlink="http://www.w3.org/1999/xlink" x="0px" y="0px"
	 width="100%" viewBox="0 0 299 168" enable-background="new 0 0 299 168" xml:space="preserve">
<path fill="#313244" opacity="1.000000" stroke="none" 
	d="
M257.000000,169.000000 
	C198.645767,169.000000 140.291550,169.000000 81.467468,168.584259 
	C80.620903,161.892319 79.795380,161.087524 73.524155,161.008759 
	C70.697563,160.973251 67.870171,161.001785 64.995651,160.622742 
	C64.623474,158.497894 64.298775,156.751556 64.153152,154.698700 
	C64.526024,139.537811 64.767693,124.683662 64.828400,109.828758 
	C64.833603,108.554718 63.637398,107.275757 63.001064,105.626297 
	C62.989277,104.508659 62.975712,103.763802 63.288406,102.813675 
	C64.075188,100.936020 64.961067,99.253616 64.921974,97.593002 
	C64.759964,90.711281 64.318428,83.836136 63.983353,76.634094 
	C63.990234,75.876709 63.993298,75.443794 63.993546,74.610992 
	C63.992256,71.136818 63.993790,68.062538 63.995949,64.658936 
	C63.996056,63.890526 63.995537,63.451447 64.145454,62.623512 
	C64.530602,55.604183 64.888405,48.975235 64.970787,42.342865 
	C65.090370,32.716633 65.006973,32.667885 74.734085,32.954662 
	C78.873215,33.076694 81.015953,31.317844 80.979828,27.102514 
	C80.966995,25.604870 80.974907,24.107059 80.965820,22.609371 
	C80.941544,18.608089 78.770836,16.831381 74.941597,17.064913 
	C71.962685,17.246588 68.999092,17.679213 65.875244,17.720459 
	C64.804909,16.625074 63.888000,15.809538 62.805798,14.771631 
	C62.427910,14.041735 62.215317,13.534207 62.131477,12.757034 
	C61.170872,10.657278 60.081516,8.827168 58.813301,6.701687 
	C58.424282,5.280075 58.214123,4.153834 58.003292,2.689502 
	C58.001747,1.900940 58.000874,1.450470 58.000000,1.000000 
	C113.354225,1.000000 168.708450,1.000000 224.571991,1.402439 
	C225.054718,9.244922 224.988831,16.685089 225.012283,24.124973 
	C225.037460,32.110111 226.035065,32.827847 233.924698,32.746330 
	C236.111786,32.723736 239.935516,33.910160 240.207703,35.154476 
	C241.031494,38.920860 241.239151,43.230263 240.091156,46.817375 
	C239.636337,48.238548 234.983017,48.870525 232.237350,48.881512 
	C227.438095,48.900711 225.031586,50.778221 225.031677,55.601688 
	C225.032043,72.540718 224.900818,89.482040 225.196594,106.415909 
	C225.234009,108.557266 227.075226,111.846863 228.853699,112.500130 
	C231.487015,113.467392 235.236145,113.800407 237.340729,109.985970 
	C238.116669,109.994011 238.560211,109.993774 239.002182,109.996613 
	C239.000610,109.999695 239.006927,109.999527 239.076141,110.303459 
	C239.764893,111.414673 240.384415,112.221962 241.090424,113.416542 
	C241.118164,118.535889 241.059387,123.267944 241.000458,128.459137 
	C241.005066,131.249863 240.953842,133.583160 241.024475,135.912750 
	C241.293732,144.792297 241.308426,144.791870 232.183319,145.004471 
	C226.712936,145.131912 225.315735,146.432663 225.025452,151.668137 
	C224.587616,159.564484 226.102936,160.980698 235.413040,160.996674 
	C238.654968,160.523972 242.331512,161.009506 244.168564,159.398056 
	C249.506500,154.715591 254.107239,149.192734 259.323364,144.129303 
	C261.114624,144.346802 262.578583,144.466095 264.044922,144.516937 
	C271.805450,144.786057 272.995789,145.787613 274.441010,153.323776 
	C275.574402,159.233871 271.264130,163.451035 265.442474,162.127945 
	C257.556641,160.335754 257.080414,160.723389 257.000000,169.000000 
M103.984764,132.120483 
	C103.978355,131.471298 103.971954,130.822098 103.947128,129.603973 
	C98.368690,128.342422 98.049286,128.632492 98.000046,135.783569 
	C99.666634,139.727951 101.351532,140.041534 104.973106,136.281586 
	C104.955116,135.485016 104.937126,134.688446 104.678101,133.460693 
	C104.474564,133.198563 104.240173,132.967758 103.984764,132.120483 
M182.448074,70.534134 
	C182.448074,70.534134 182.491165,70.504951 183.208450,70.471817 
	C188.487366,66.963234 189.289200,62.231792 184.931213,58.524994 
	C184.900436,58.171368 184.869675,57.817741 184.894012,56.543407 
	C184.953217,49.424477 184.526428,48.985966 177.484695,49.004749 
	C176.173889,49.008247 174.863220,49.059330 172.874542,49.120522 
	C170.587250,49.491261 168.299973,49.862000 165.455505,49.758362 
	C162.837616,46.359196 160.219727,42.960030 156.874756,38.616783 
	C157.137772,36.676868 156.080292,33.868607 153.138321,33.493225 
	C151.020569,33.223007 147.675568,34.026779 146.737762,35.519711 
	C145.846970,36.937805 146.597961,40.738819 147.982361,41.978771 
	C151.989456,45.567711 154.743118,41.574554 157.629669,38.914238 
	C159.021698,41.769131 160.235245,44.257984 160.966553,47.113197 
	C159.342072,46.918030 157.717575,46.722858 154.789413,46.371063 
	C153.816406,48.026173 152.410477,50.417740 150.315781,53.146843 
	C148.613312,53.552326 146.910843,53.957806 144.731552,53.794285 
	C142.919861,52.237595 141.108170,50.680901 138.462708,49.217010 
	C134.361801,49.489315 130.114594,49.177742 126.191750,50.160664 
	C118.976570,51.968540 115.882080,57.838387 117.875282,65.061508 
	C118.548347,67.500610 119.938423,69.741844 121.050529,72.897316 
	C121.100418,73.720055 121.150299,74.542786 120.984322,76.005569 
	C119.987457,77.661728 118.990601,79.317886 117.200722,81.004158 
	C112.257469,82.201897 111.925171,83.473701 115.010315,89.576805 
	C115.010315,89.576805 114.889824,90.003738 114.331169,90.330383 
	C114.450165,95.594147 114.422890,100.867928 114.782440,106.115204 
	C114.882744,107.579033 115.760376,109.493660 116.911743,110.289085 
	C120.718658,112.919098 130.204132,110.461189 132.911728,106.597321 
	C133.554306,105.680367 134.792648,105.180908 135.756958,104.489418 
	C136.469055,105.499535 137.555161,106.417336 137.831055,107.535118 
	C139.342819,113.659943 139.509811,113.787720 145.779236,111.104088 
	C149.153427,110.961754 152.636566,114.385597 156.355881,111.370697 
	C157.211441,111.824272 158.089828,112.709373 158.919098,112.665543 
	C168.576553,112.155067 178.235336,111.603470 187.866791,110.756088 
	C188.971680,110.658882 190.715897,108.755859 190.792145,107.599655 
	C191.134109,102.414948 190.979889,97.197517 191.400894,91.540718 
	C190.858582,89.352242 190.336777,87.158409 189.766693,84.977188 
	C189.392654,83.546043 188.174438,81.727928 188.669510,80.781731 
	C190.891907,76.534233 188.278656,76.289558 185.282166,76.105347 
	C183.834595,76.016357 182.386780,75.930992 180.982681,75.234283 
	C180.995865,74.826973 181.009048,74.419662 181.612595,73.673134 
	C181.895599,72.643555 182.178604,71.613968 182.448074,70.534134 
M196.497711,130.979492 
	C196.497711,130.979492 195.998169,131.000046 195.315842,130.717972 
	C192.542801,130.475906 189.769760,130.233856 186.140518,129.994751 
	C184.426743,129.996887 182.712967,129.999023 180.650436,129.481659 
	C179.364197,129.226196 178.057266,128.695435 176.797318,128.790024 
	C175.442795,128.891693 174.132324,129.580338 172.139359,129.638885 
	C169.768631,129.429855 167.397903,129.220825 164.151291,129.010376 
	C157.065979,129.329346 149.980652,129.648331 142.434921,129.479340 
	C141.329666,129.335999 140.224396,129.192657 138.200089,129.030869 
	C133.101669,129.452362 126.254662,127.996635 123.314590,130.735245 
	C118.902718,134.844803 116.532005,132.309692 112.909386,130.506699 
	C112.399620,130.509796 111.448425,130.469803 111.443321,130.522156 
	C111.167427,133.349594 110.971085,136.184769 110.768188,138.996933 
	C113.785522,138.996933 115.898514,138.996933 118.605392,139.220795 
	C121.678192,140.194809 124.823784,142.124466 127.805092,141.897385 
	C131.411011,141.622711 134.219116,142.632477 137.456345,143.689636 
	C143.807068,145.763535 144.896729,144.664093 145.031448,137.545715 
	C145.016937,137.365387 145.002441,137.185059 145.696609,136.945786 
	C148.394653,136.217102 150.229263,136.792221 151.894318,139.446533 
	C154.675140,143.879501 159.618851,145.440750 163.492142,143.385681 
	C168.779724,140.580215 173.765152,141.737091 178.978699,143.583130 
	C181.568451,144.500137 184.618759,145.969833 186.877228,142.481705 
	C191.072495,136.002274 191.015335,136.145523 196.473007,141.783295 
	C197.892883,143.250015 201.264771,145.049301 202.102676,144.440887 
	C204.625351,142.609085 207.298874,139.946548 208.136429,137.087418 
	C209.260101,133.251587 205.793503,129.945724 201.494003,129.674683 
	C200.326508,129.783401 199.159027,129.892105 197.639816,130.300186 
	C197.412369,130.507950 197.198227,130.728638 196.497711,130.979492 
M190.301117,71.548378 
	C190.885574,71.945076 191.470047,72.341766 192.054489,72.738464 
	C192.215530,72.012032 192.376572,71.285599 192.537613,70.559174 
	C191.833954,70.705475 191.130280,70.851776 190.301117,71.548378 
z"/>
<path fill="#2E3444" opacity="1.000000" stroke="none" 
	d="
M257.468658,169.000000 
	C257.080414,160.723389 257.556641,160.335754 265.442474,162.127945 
	C271.264130,163.451035 275.574402,159.233871 274.441010,153.323776 
	C272.995789,145.787613 271.805450,144.786057 264.044922,144.516937 
	C262.578583,144.466095 261.114624,144.346802 259.416107,143.850647 
	C257.836182,141.559845 256.489685,139.677505 254.587646,137.018494 
	C257.617279,138.076950 259.733032,138.816132 262.769409,139.876953 
	C258.245667,133.317032 256.332520,132.884888 251.514145,136.932770 
	C247.844452,140.015686 244.381271,143.350357 240.903961,146.654831 
	C236.817856,150.537857 233.691315,154.868317 235.007324,160.996948 
	C226.102936,160.980698 224.587616,159.564484 225.025452,151.668137 
	C225.315735,146.432663 226.712936,145.131912 232.183319,145.004471 
	C241.308426,144.791870 241.293732,144.792297 241.024475,135.912750 
	C240.953842,133.583160 241.005066,131.249863 241.376617,128.495148 
	C243.626633,129.220764 246.025909,129.972687 247.258545,131.605408 
	C249.449432,134.507401 250.958755,133.546066 252.781296,131.557205 
	C254.179749,130.031113 255.593201,128.518753 257.256470,127.286652 
	C261.691345,127.971367 265.870270,128.601593 270.047821,128.592834 
	C271.002258,128.590820 272.430878,126.510803 272.787842,125.161423 
	C273.280731,123.298286 272.867279,121.213791 273.013367,119.236771 
	C273.346710,114.724953 271.155426,113.074966 266.825226,112.910172 
	C264.527527,112.822731 262.270477,111.668037 260.233582,110.804482 
	C262.741547,106.965538 259.239319,107.254822 257.541260,106.154434 
	C255.444534,104.795670 253.435852,103.265495 251.561447,101.613831 
	C250.584198,100.752724 249.976852,99.471832 250.060043,99.589058 
	C245.595749,102.328171 241.865936,104.478348 238.321350,106.899681 
	C237.545044,107.429977 237.428635,108.926270 237.008331,109.977692 
	C235.236145,113.800407 231.487015,113.467392 228.853699,112.500130 
	C227.075226,111.846863 225.234009,108.557266 225.196594,106.415909 
	C224.900818,89.482040 225.032043,72.540718 225.031677,55.601688 
	C225.031586,50.778221 227.438095,48.900711 232.237350,48.881512 
	C234.983017,48.870525 239.636337,48.238548 240.091156,46.817375 
	C241.239151,43.230263 241.031494,38.920860 240.207703,35.154476 
	C239.935516,33.910160 236.111786,32.723736 233.924698,32.746330 
	C226.035065,32.827847 225.037460,32.110111 225.012283,24.124973 
	C224.988831,16.685089 225.054718,9.244922 225.040649,1.402439 
	C249.961700,1.000000 274.923401,1.000000 299.942566,1.000000 
	C299.942566,56.875874 299.942566,112.751823 299.942566,169.000000 
	C285.981293,169.000000 271.959320,169.000000 257.468658,169.000000 
M255.951584,37.341759 
	C255.636368,36.553326 255.321152,35.764889 254.979614,34.169907 
	C253.792267,26.601921 253.366348,26.442814 246.119308,28.215668 
	C244.605606,28.585970 242.721039,27.440382 241.630661,26.948074 
	C242.625183,26.585230 243.619720,26.222383 244.442078,25.922352 
	C242.762146,22.586357 241.268814,19.620905 239.775467,16.655453 
	C239.551224,16.737345 239.326981,16.819237 239.102737,16.901129 
	C239.737259,20.264952 240.371796,23.628775 240.454071,26.796865 
	C239.526978,26.279495 238.599884,25.762123 237.672775,25.244751 
	C237.543747,27.377869 238.108170,30.031960 239.045059,30.170692 
	C242.984604,30.754055 247.035446,30.585716 251.274384,30.698627 
	C252.244537,32.093456 253.611816,34.059227 255.139114,36.563480 
	C255.421570,37.044849 255.704025,37.526218 256.083710,38.655941 
	C257.141815,39.022396 259.003601,39.888870 259.134521,39.678455 
	C260.546753,37.408581 261.686523,34.969177 262.900757,32.576115 
	C262.625458,32.495747 262.350159,32.415375 262.074860,32.335007 
	C260.055176,34.217957 258.035522,36.100903 255.951584,37.341759 
M251.358307,75.236015 
	C251.623886,81.113106 255.733170,82.948898 260.583618,83.891884 
	C264.587555,84.670288 267.788422,82.769997 269.195618,79.408615 
	C270.860657,75.431305 271.895660,70.372604 267.600861,67.596642 
	C264.750458,65.754257 260.388397,64.932182 257.034210,65.525513 
	C252.956772,66.246796 251.503952,70.353325 251.358307,75.236015 
M247.155411,79.530014 
	C247.613449,75.878998 248.568893,72.185532 248.262817,68.599731 
	C248.154022,67.325035 244.980087,66.311966 243.205368,65.179466 
	C242.190552,66.793655 240.568787,68.317909 240.312943,70.044556 
	C239.985367,72.255226 240.786423,74.625656 241.049911,76.933098 
	C241.460205,80.526276 243.266190,81.553383 247.155411,79.530014 
M271.407471,90.183876 
	C272.176788,89.378586 272.946075,88.573296 273.925873,87.547691 
	C262.577515,91.003326 252.694687,84.552910 242.372345,84.545662 
	C242.298706,85.090103 242.225052,85.634544 242.151413,86.178986 
	C251.688492,87.603989 261.225555,89.028992 271.407471,90.183876 
M233.754349,68.913765 
	C233.665710,70.159958 233.577087,71.406151 233.488449,72.652351 
	C235.497345,68.620171 236.219086,64.544266 237.169586,60.522411 
	C238.393906,55.341873 242.977844,55.155010 247.898239,54.506306 
	C241.120712,52.153950 237.171539,54.133614 235.768387,59.872917 
	C235.096008,62.623070 234.517075,65.396065 233.754349,68.913765 
M285.125702,104.082199 
	C285.373444,102.372803 285.621216,100.663406 285.868988,98.954018 
	C285.313812,98.929138 284.758636,98.904266 284.203461,98.879395 
	C284.203461,108.403091 284.203461,117.926788 284.203461,127.450478 
	C284.487854,127.473343 284.772217,127.496208 285.056610,127.519073 
	C285.056610,119.989204 285.056610,112.459335 285.125702,104.082199 
M256.235321,27.913544 
	C256.994202,28.636120 257.753113,29.358696 258.511993,30.081284 
	C259.330872,29.004726 260.149719,27.928169 261.123169,26.648367 
	C256.381897,25.386114 253.472672,18.766855 247.618866,23.811850 
	C250.394058,25.820358 255.099197,22.097784 256.235321,27.913544 
M249.794815,59.147923 
	C247.081161,59.002392 244.367508,58.856861 241.653854,58.711330 
	C241.442184,59.313461 241.230515,59.915596 241.018845,60.517727 
	C242.287582,61.013691 243.525406,61.627163 244.834045,61.971550 
	C246.066406,62.295864 247.371262,62.356113 248.648239,62.495884 
	C249.693207,62.610256 250.744095,62.670670 251.792358,62.754997 
	C251.370178,61.603207 250.947998,60.451420 249.794815,59.147923 
M273.774719,81.873405 
	C273.932312,81.903549 274.089905,81.933693 274.247498,81.963837 
	C274.138733,81.890160 274.029999,81.816483 273.774719,81.873405 
M263.871918,29.212330 
	C263.985657,29.150379 264.099396,29.088428 264.213135,29.026474 
	C264.129333,28.932367 264.045532,28.838261 263.961700,28.744160 
	C263.888763,28.851866 263.815826,28.959574 263.871918,29.212330 
M236.633896,21.673960 
	C236.577637,21.695021 236.521393,21.716080 236.633896,21.673960 
z"/>
<path fill="#2E3444" opacity="1.000000" stroke="none" 
	d="
M66.028687,18.000305 
	C68.999092,17.679213 71.962685,17.246588 74.941597,17.064913 
	C78.770836,16.831381 80.941544,18.608089 80.965820,22.609371 
	C80.974907,24.107059 80.966995,25.604870 80.979828,27.102514 
	C81.015953,31.317844 78.873215,33.076694 74.734085,32.954662 
	C65.006973,32.667885 65.090370,32.716633 64.970787,42.342865 
	C64.888405,48.975235 64.530602,55.604183 63.876434,62.404655 
	C61.456627,58.085243 59.456264,53.595840 57.455902,49.106438 
	C57.284504,51.756413 57.198952,54.353504 58.215759,56.403934 
	C59.734921,59.467384 62.030205,62.145958 63.995323,64.988258 
	C63.993790,68.062538 63.992256,71.136818 63.690620,74.728973 
	C61.926407,76.165810 60.462292,77.084770 58.879963,77.934235 
	C58.487553,77.771156 58.231323,77.812469 57.676769,78.143661 
	C49.388706,80.454521 41.416931,82.610390 33.564022,84.734116 
	C36.669365,91.043182 54.660278,86.876030 63.979530,76.958580 
	C64.318428,83.836136 64.759964,90.711281 64.921974,97.593002 
	C64.961067,99.253616 64.075188,100.936020 62.924030,102.829056 
	C59.566162,104.118530 56.898933,105.187347 55.010014,105.944283 
	C53.875782,104.009392 53.372772,101.806290 52.159622,101.297943 
	C43.666393,97.739105 37.879807,98.303886 34.864201,102.540321 
	C40.584599,99.589973 51.353973,100.368462 52.518501,108.319778 
	C56.009426,107.546806 59.504356,106.772942 62.999287,105.999084 
	C63.637398,107.275757 64.833603,108.554718 64.828400,109.828758 
	C64.767693,124.683662 64.526024,139.537811 63.961800,154.381592 
	C62.345142,149.753464 61.430145,145.004333 59.676212,140.588425 
	C59.047394,139.005234 56.491375,137.931885 54.590912,137.305222 
	C54.163517,137.164276 52.778069,139.851273 51.878212,141.264801 
	C51.583565,141.727646 51.429962,142.280289 50.801373,143.754654 
	C50.190712,141.201813 50.039288,139.557098 49.380344,138.150055 
	C48.896309,137.116501 47.747471,136.394287 46.894901,135.533325 
	C46.288448,136.725693 45.384163,137.867065 45.168602,139.126343 
	C44.992165,140.157074 45.678314,141.319794 45.906403,142.439423 
	C46.188538,143.824326 46.392483,145.225174 46.694771,146.997711 
	C47.021805,146.997711 48.006851,146.997711 48.726971,147.236221 
	C45.738247,148.539581 43.014450,149.604416 40.290653,150.669266 
	C40.386314,150.936493 40.481976,151.203705 40.577633,151.470932 
	C44.754803,150.652313 48.931969,149.833694 51.777431,149.276047 
	C52.369164,152.802032 52.585251,156.040939 53.597679,159.008133 
	C53.928425,159.977478 56.332226,160.239487 57.787941,160.824982 
	C58.099655,160.526657 58.411373,160.228317 58.723087,159.929993 
	C56.646523,156.305832 53.112801,152.696228 58.337708,149.001511 
	C59.101913,148.999435 59.538513,148.998291 60.066738,149.359360 
	C61.773956,154.151245 63.389545,158.580933 65.010994,163.016083 
	C65.016853,163.021561 65.026283,163.035309 65.011139,163.342712 
	C63.997330,165.433411 62.998665,167.216705 62.000000,169.000000 
	C41.726543,169.000000 21.453085,169.000000 1.000000,169.000000 
	C1.000000,139.979355 1.000000,110.958336 1.466024,81.468658 
	C4.598161,80.999573 7.264400,81.015686 9.930363,80.995438 
	C16.385696,80.946419 17.835127,79.668396 17.933327,73.081619 
	C18.022154,67.123741 17.599592,61.159668 17.619867,55.199062 
	C17.667356,41.239159 17.881151,27.279814 17.925104,13.319917 
	C17.930685,11.547633 17.323317,9.773419 16.996321,7.601029 
	C16.661812,5.134639 16.330906,3.067320 16.000000,1.000000 
	C29.354227,1.000000 42.708454,1.000000 56.609013,1.274855 
	C57.438217,2.042338 57.721092,2.534965 58.003963,3.027592 
	C58.214123,4.153834 58.424282,5.280075 58.893471,7.057331 
	C59.440517,9.135022 59.728531,10.561699 60.009056,11.993832 
	C60.001564,11.999288 59.992325,12.009903 59.718849,12.143969 
	C57.124931,14.787380 59.022701,15.907439 61.000450,17.000504 
	C61.000000,17.000000 60.999374,16.998709 60.929420,17.348965 
	C59.106422,18.149160 57.375820,18.772398 55.594383,19.002996 
	C53.591785,19.262228 51.543320,19.167093 49.514805,19.226118 
	C49.588581,19.680571 49.662357,20.135023 49.736134,20.589476 
	C55.055618,21.851334 60.375099,23.113192 66.890671,24.658777 
	C65.398361,26.850821 63.855022,29.117832 62.311684,31.384846 
	C62.589989,31.758730 62.868298,32.132614 63.146603,32.506496 
	C64.938362,31.068302 67.392891,29.974377 68.361946,28.108829 
	C69.715233,25.503601 69.258568,22.565485 66.025436,20.626719 
	C66.025871,19.501108 66.027283,18.750708 66.028687,18.000305 
M48.069710,52.981808 
	C43.466892,53.313915 38.864071,53.646027 34.261253,53.978134 
	C34.341591,54.634190 34.421932,55.290245 34.502274,55.946301 
	C39.341301,54.970554 44.180332,53.994808 49.684158,52.958942 
	C50.825653,52.466866 51.967144,51.974792 53.108639,51.482716 
	C52.801826,51.027882 52.495018,50.573044 52.188206,50.118210 
	C51.120396,51.072796 50.052582,52.027382 48.069710,52.981808 
M32.752991,73.368607 
	C32.836994,73.920280 32.920998,74.471954 33.003754,75.650269 
	C33.002209,76.068024 33.000664,76.485779 33.075302,77.658157 
	C34.277306,78.697899 35.350025,80.068237 36.745255,80.613884 
	C37.299644,80.830688 39.368950,79.203293 39.353168,78.444519 
	C39.315189,76.618248 38.452995,74.809113 37.601749,72.696625 
	C37.394306,72.492043 37.201694,72.274345 37.163704,71.315086 
	C39.974335,69.901512 42.784962,68.487938 46.891792,66.422455 
	C41.652805,66.808342 37.911499,67.083908 34.053757,67.368057 
	C33.664040,69.452728 33.331924,71.229263 32.999882,72.999634 
	C32.999882,72.999634 33.004459,72.996277 32.752991,73.368607 
M50.719086,114.315506 
	C49.433495,118.128357 47.036804,119.315117 43.113781,117.989296 
	C39.999950,116.936958 36.719635,116.377205 33.450432,115.583504 
	C36.315098,120.051735 47.807308,121.518044 51.967602,118.278564 
	C54.610329,119.678970 57.123226,121.010582 59.636120,122.342194 
	C60.376942,119.738800 61.117767,117.135406 61.858589,114.532021 
	C61.454422,114.420250 61.050251,114.308479 60.646084,114.196709 
	C60.024868,115.957024 59.403656,117.717339 58.816624,119.380791 
	C56.149021,117.552826 53.719711,115.888145 50.719086,114.315506 
M52.605675,73.801361 
	C52.269371,69.681946 49.191292,67.380318 46.959408,69.805420 
	C45.558029,71.328110 45.374428,74.566444 45.728836,76.868095 
	C45.916023,78.083717 48.425430,78.941750 49.886387,79.961235 
	C50.764721,78.152214 51.643055,76.343193 52.605675,73.801361 
M34.012810,27.225109 
	C33.485939,28.845665 32.959068,30.466219 32.432198,32.086773 
	C32.021442,32.091003 31.610687,32.095230 31.199932,32.099461 
	C31.985167,33.745377 32.770401,35.391293 33.802540,37.554737 
	C36.905602,30.824562 37.504166,20.813072 35.083202,17.535452 
	C34.710716,20.693329 34.371334,23.570526 34.012810,27.225109 
M22.869036,59.553169 
	C22.346581,59.366409 21.824125,59.179653 21.301666,58.992897 
	C20.820688,63.233616 20.339710,67.474335 19.858732,71.715057 
	C20.174929,71.748428 20.491125,71.781799 20.807323,71.815170 
	C21.519531,67.955704 22.231739,64.096237 22.869036,59.553169 
M48.376827,36.802151 
	C47.248837,37.445492 46.120846,38.088833 44.992855,38.732170 
	C45.222847,39.150791 45.452835,39.569412 45.682823,39.988029 
	C48.536438,38.574055 51.390057,37.160084 54.243671,35.746109 
	C54.037495,35.300972 53.831322,34.855835 53.625145,34.410698 
	C52.079353,35.108986 50.533562,35.807274 48.376827,36.802151 
M48.782341,157.826920 
	C48.891483,158.145050 49.000626,158.463196 49.109772,158.781326 
	C49.401085,158.495972 49.692398,158.210602 49.983707,157.925232 
	C49.694878,157.840271 49.406048,157.755325 48.782341,157.826920 
M21.495886,76.068550 
	C21.495886,76.068550 21.438959,76.017944 21.495886,76.068550 
M42.050743,40.573116 
	C42.050743,40.573116 41.969002,40.569305 42.050743,40.573116 
M56.500275,33.529034 
	C56.500275,33.529034 56.484028,33.486317 56.500275,33.529034 
M41.496933,147.476791 
	C41.496933,147.476791 41.509502,147.513016 41.496933,147.476791 
z"/>
<path fill="#313244" opacity="1.000000" stroke="none" 
	d="
M15.666667,1.000000 
	C16.330906,3.067320 16.661812,5.134639 16.730267,7.816257 
	C15.856077,10.412841 14.739064,12.390304 14.720087,14.378249 
	C14.638034,22.973627 14.930960,31.571735 14.985002,40.169495 
	C15.044089,49.569851 14.862484,58.973068 15.020613,68.371086 
	C15.189149,78.387741 14.706814,78.995697 4.490651,78.999924 
	C3.327101,79.000404 2.163550,79.000000 1.000000,79.000000 
	C1.000000,72.645599 1.000000,66.291206 1.443418,59.468388 
	C10.411496,58.971935 10.385493,58.972214 10.291805,50.211773 
	C10.277767,48.899132 10.989072,47.513393 10.746431,46.283463 
	C10.358181,44.315441 9.626536,42.350025 8.635614,40.614414 
	C8.404135,40.208973 5.716630,40.461990 5.585747,40.869854 
	C4.973769,42.776928 4.085549,45.142525 4.721714,46.795620 
	C6.332759,50.981998 5.290942,53.167152 1.000000,54.000000 
	C1.000000,36.333324 1.000000,18.666645 1.000000,1.000000 
	C2.696157,1.000000 4.348607,1.000000 6.500789,1.425486 
	C7.075936,3.324147 6.714056,5.029308 7.340502,6.210160 
	C8.077911,7.600181 9.672039,8.535711 10.894676,9.668318 
	C11.909546,8.420652 13.322724,7.314113 13.828679,5.886131 
	C14.347759,4.421104 13.979762,2.641773 14.000000,1.000000 
	C14.444445,1.000000 14.888889,1.000000 15.666667,1.000000 
M8.889791,34.141510 
	C9.438436,31.396069 10.635989,28.579071 10.343472,25.926386 
	C10.079185,23.529703 7.735404,22.433390 5.447815,24.425449 
	C2.378716,27.098055 4.111967,33.163433 8.889791,34.141510 
z"/>
<path fill="#313244" opacity="1.000000" stroke="none" 
	d="
M1.000000,79.333328 
	C2.163550,79.000000 3.327101,79.000404 4.490651,78.999924 
	C14.706814,78.995697 15.189149,78.387741 15.020613,68.371086 
	C14.862484,58.973068 15.044089,49.569851 14.985002,40.169495 
	C14.930960,31.571735 14.638034,22.973627 14.720087,14.378249 
	C14.739064,12.390304 15.856077,10.412841 16.733870,8.215326 
	C17.323317,9.773419 17.930685,11.547633 17.925104,13.319917 
	C17.881151,27.279814 17.667356,41.239159 17.619867,55.199062 
	C17.599592,61.159668 18.022154,67.123741 17.933327,73.081619 
	C17.835127,79.668396 16.385696,80.946419 9.930363,80.995438 
	C7.264400,81.015686 4.598161,80.999573 1.466024,81.000000 
	C1.000000,80.555557 1.000000,80.111107 1.000000,79.333328 
z"/>
<path fill="#313244" opacity="1.000000" stroke="none" 
	d="
M1.000000,54.416664 
	C5.290942,53.167152 6.332759,50.981998 4.721714,46.795620 
	C4.085549,45.142525 4.973769,42.776928 5.585747,40.869854 
	C5.716630,40.461990 8.404135,40.208973 8.635614,40.614414 
	C9.626536,42.350025 10.358181,44.315441 10.746431,46.283463 
	C10.989072,47.513393 10.277767,48.899132 10.291805,50.211773 
	C10.385493,58.972214 10.411496,58.971935 1.443418,58.999985 
	C1.000000,57.611111 1.000000,56.222221 1.000000,54.416664 
z"/>
<path fill="#2E3444" opacity="1.000000" stroke="none" 
	d="
M65.043137,161.001266 
	C67.870171,161.001785 70.697563,160.973251 73.524155,161.008759 
	C79.795380,161.087524 80.620903,161.892319 80.998810,168.584259 
	C76.643097,169.000000 72.286201,169.000000 67.463501,168.606567 
	C66.340561,166.487198 65.683418,164.761246 65.026283,163.035309 
	C65.026283,163.035309 65.016853,163.021561 65.017929,162.681061 
	C65.027054,161.894135 65.035095,161.447693 65.043137,161.001266 
z"/>
<path fill="#313244" opacity="1.000000" stroke="none" 
	d="
M13.562500,1.000000 
	C13.979762,2.641773 14.347759,4.421104 13.828679,5.886131 
	C13.322724,7.314113 11.909546,8.420652 10.894676,9.668318 
	C9.672039,8.535711 8.077911,7.600181 7.340502,6.210160 
	C6.714056,5.029308 7.075936,3.324147 7.000260,1.425486 
	C9.041667,1.000000 11.083333,1.000000 13.562500,1.000000 
z"/>
<path fill="#313244" opacity="1.000000" stroke="none" 
	d="
M65.011139,163.342712 
	C65.683418,164.761246 66.340561,166.487198 66.998848,168.606567 
	C65.611115,169.000000 64.222221,169.000000 62.416664,169.000000 
	C62.998665,167.216705 63.997330,165.433411 65.011139,163.342712 
z"/>
<path fill="#373D4D" opacity="1.000000" stroke="none" 
	d="
M58.003292,2.689501 
	C57.721092,2.534965 57.438217,2.042338 57.077671,1.274855 
	C57.000000,1.000000 57.500000,1.000000 57.750000,1.000000 
	C58.000874,1.450470 58.001747,1.900940 58.003292,2.689501 
z"/>
<path fill="#2A3344" opacity="1.000000" stroke="none" 
	d="
M142.895340,129.967316 
	C149.980652,129.648331 157.065979,129.329346 164.568054,129.452759 
	C164.984818,132.570526 164.984818,135.245895 164.984818,137.921265 
	C167.754929,131.551483 170.024704,137.821869 171.728561,138.070084 
	C172.117249,135.154312 172.459946,132.583588 172.802643,130.012848 
	C174.132324,129.580338 175.442795,128.891693 176.797318,128.790024 
	C178.057266,128.695435 179.364197,129.226196 180.588425,129.925354 
	C179.952682,131.694412 178.707108,134.054626 178.908798,134.185577 
	C181.002304,135.544724 183.694473,137.872314 185.515198,137.370834 
	C189.408447,136.298477 187.874542,132.790176 186.996719,129.991791 
	C189.769760,130.233856 192.542801,130.475906 195.563812,131.134186 
	C197.013550,133.160324 198.215317,134.770218 199.417068,136.380127 
	C199.945892,136.215912 200.474716,136.051697 201.003540,135.887482 
	C201.337585,133.923248 201.671631,131.959030 202.005661,129.994797 
	C205.793503,129.945724 209.260101,133.251587 208.136429,137.087418 
	C207.298874,139.946548 204.625351,142.609085 202.102676,144.440887 
	C201.264771,145.049301 197.892883,143.250015 196.473007,141.783295 
	C191.015335,136.145523 191.072495,136.002274 186.877228,142.481705 
	C184.618759,145.969833 181.568451,144.500137 178.978699,143.583130 
	C173.765152,141.737091 168.779724,140.580215 163.492142,143.385681 
	C159.618851,145.440750 154.675140,143.879501 151.894318,139.446533 
	C150.229263,136.792221 148.394653,136.217102 144.912750,136.987503 
	C142.411880,137.015915 140.694870,137.002594 138.987289,136.996490 
	C138.996719,137.003723 139.011963,137.021973 139.051819,136.623779 
	C138.778152,133.178360 139.163940,130.556137 142.895340,129.967316 
z"/>
<path fill="#2D3648" opacity="1.000000" stroke="none" 
	d="
M180.939087,75.843987 
	C182.386780,75.930992 183.834595,76.016357 185.282166,76.105347 
	C188.278656,76.289558 190.891907,76.534233 188.669510,80.781731 
	C188.174438,81.727928 189.392654,83.546043 189.766693,84.977188 
	C190.336777,87.158409 190.858582,89.352242 190.962219,91.552544 
	C189.357056,91.044991 188.190582,90.525620 186.743683,89.752937 
	C181.178162,86.338470 178.762985,87.424156 176.959381,93.256775 
	C176.584030,94.470619 174.625381,95.194870 173.160660,96.238693 
	C172.621429,96.483025 172.317963,96.633400 171.683929,96.852921 
	C170.905502,96.902969 170.457642,96.883888 169.835510,96.610931 
	C169.081482,95.512680 168.501724,94.668304 167.926331,93.605804 
	C167.930710,93.387665 168.088898,92.981003 168.242584,92.710999 
	C168.556091,91.843712 168.715897,91.246429 168.867340,90.239624 
	C171.065170,76.991142 171.370956,64.267525 166.777283,51.551323 
	C169.175156,51.664181 171.347855,52.091148 173.524811,52.495117 
	C183.753830,54.393276 184.020523,60.354259 181.387360,67.097061 
	C180.623459,69.053215 179.167435,70.728294 178.233047,72.632500 
	C177.624634,73.872368 177.385269,75.293327 176.846451,77.077240 
	C178.804138,76.487320 179.871613,76.165649 180.939087,75.843987 
z"/>
<path fill="#2A3646" opacity="1.000000" stroke="none" 
	d="
M145.040680,110.890121 
	C139.509811,113.787720 139.342819,113.659943 137.831055,107.535118 
	C137.555161,106.417336 136.469055,105.499535 135.756958,104.489418 
	C134.792648,105.180908 133.554306,105.680367 132.911728,106.597321 
	C130.204132,110.461189 120.718658,112.919098 116.911743,110.289085 
	C115.760376,109.493660 114.882744,107.579033 114.782440,106.115204 
	C114.422890,100.867928 114.450165,95.594147 114.666122,90.580307 
	C114.915550,97.265892 117.401863,99.362701 122.393280,97.064392 
	C125.366592,95.695320 125.841393,90.788559 123.344345,87.235756 
	C119.605865,81.916649 119.792549,80.705475 125.141434,76.785614 
	C127.847450,80.422020 130.420471,83.712479 132.934937,87.320923 
	C133.389313,88.962456 133.882858,90.293953 134.421387,91.607010 
	C134.846603,92.643730 135.327133,93.657761 135.631927,94.918335 
	C137.237152,101.268845 139.833466,106.872604 145.040680,110.890121 
M129.856430,97.022224 
	C129.078568,97.337166 128.300720,97.652107 127.522858,97.967041 
	C128.508347,99.449333 129.493820,100.931633 130.479294,102.413925 
	C131.105316,102.081085 131.731323,101.748245 132.357330,101.415405 
	C131.696991,100.050743 131.036652,98.686073 129.856430,97.022224 
z"/>
<path fill="#2D3343" opacity="1.000000" stroke="none" 
	d="
M257.000000,127.000305 
	C255.593201,128.518753 254.179749,130.031113 252.781296,131.557205 
	C250.958755,133.546066 249.449432,134.507401 247.258545,131.605408 
	C246.025909,129.972687 243.626633,129.220764 241.376770,128.036011 
	C241.059387,123.267944 241.118164,118.535889 241.213257,113.174118 
	C240.502029,111.696106 239.754486,110.847816 239.006927,109.999527 
	C239.006927,109.999527 239.000610,109.999695 239.185181,109.688095 
	C242.749359,107.750443 246.128937,106.124397 249.209641,104.642159 
	C251.811615,106.287224 254.661270,108.088898 257.737000,110.033508 
	C257.628204,110.467873 257.310883,111.734772 256.767090,112.996964 
	C256.540649,112.992256 256.087708,112.984322 255.994720,113.095665 
	C255.774033,113.488327 255.807632,113.754677 256.001282,114.002808 
	C256.000000,113.999550 255.996201,113.993065 256.003601,114.235062 
	C256.010986,114.477066 256.011230,114.961296 256.006531,115.194046 
	C256.001801,115.426788 255.993622,115.892319 255.817535,116.156113 
	C254.879730,118.959480 253.438705,119.476677 250.868011,118.648087 
	C249.828995,118.313187 248.297424,119.506317 246.782227,120.105026 
	C246.575272,120.671768 246.576080,121.137581 246.576889,121.603378 
	C247.385300,121.061562 248.193710,120.519745 249.363586,120.016403 
	C252.148788,121.033951 254.572571,122.013016 256.996948,123.392899 
	C256.998383,124.862579 256.999176,125.931442 257.000000,127.000305 
z"/>
<path fill="#2A3344" opacity="1.000000" stroke="none" 
	d="
M187.024094,90.006241 
	C188.190582,90.525620 189.357056,91.044991 190.764130,91.778130 
	C190.979889,97.197517 191.134109,102.414948 190.792145,107.599655 
	C190.715897,108.755859 188.971680,110.658882 187.866791,110.756088 
	C178.235336,111.603470 168.576553,112.155067 158.919098,112.665543 
	C158.089828,112.709373 157.211441,111.824272 156.354370,110.828156 
	C158.577560,108.525909 160.802292,106.766197 163.334778,105.073303 
	C164.429993,105.429771 165.217407,105.719414 166.087936,106.382126 
	C169.122940,107.494400 172.045364,108.468384 175.042831,108.844788 
	C176.084656,108.975616 177.312225,107.627373 178.454956,106.954666 
	C177.302292,106.299774 176.149612,105.644882 174.996887,104.620918 
	C174.995209,103.513702 174.993591,102.775566 175.282013,102.082352 
	C176.417221,102.127281 177.262390,102.127281 179.289322,102.127281 
	C177.186584,100.564972 176.066742,99.732933 175.223206,98.671715 
	C177.036255,98.044189 178.598755,97.227547 180.105286,97.320267 
	C186.463242,97.711586 187.900681,96.298904 187.024094,90.006241 
z"/>
<path fill="#2A3344" opacity="1.000000" stroke="none" 
	d="
M145.019302,138.088318 
	C144.896729,144.664093 143.807068,145.763535 137.456345,143.689636 
	C134.219116,142.632477 131.411011,141.622711 127.805092,141.897385 
	C124.823784,142.124466 121.678192,140.194809 118.157211,138.785919 
	C114.717346,136.815948 111.930656,135.154358 113.176979,131.004745 
	C116.532005,132.309692 118.902718,134.844803 123.314590,130.735245 
	C126.254662,127.996635 133.101669,129.452362 138.469528,129.338684 
	C137.051422,132.170837 135.969009,134.672745 139.011963,137.021973 
	C139.011963,137.021973 138.996719,137.003723 139.178009,137.272003 
	C141.245972,137.722977 143.132629,137.905640 145.019302,138.088318 
z"/>
<path fill="#343A4A" opacity="1.000000" stroke="none" 
	d="
M235.413040,160.996674 
	C233.691315,154.868317 236.817856,150.537857 240.903961,146.654831 
	C244.381271,143.350357 247.844452,140.015686 251.514145,136.932770 
	C256.332520,132.884888 258.245667,133.317032 262.769409,139.876953 
	C259.733032,138.816132 257.617279,138.076950 254.587646,137.018494 
	C256.489685,139.677505 257.836182,141.559845 259.089905,143.720871 
	C254.107239,149.192734 249.506500,154.715591 244.168564,159.398056 
	C242.331512,161.009506 238.654968,160.523972 235.413040,160.996674 
M253.359100,144.737289 
	C252.707367,144.057632 252.115372,142.864883 251.394287,142.780930 
	C246.433594,142.203369 240.501572,149.993881 242.434723,156.460693 
	C246.397186,152.433640 249.869217,148.905014 253.359100,144.737289 
z"/>
<path fill="#ADD4E0" opacity="1.000000" stroke="none" 
	d="
M168.088898,92.981003 
	C168.088898,92.981003 167.930710,93.387665 167.506821,93.732880 
	C166.802414,92.775566 166.200531,91.448639 166.297241,90.174759 
	C166.707092,84.776543 167.324478,79.394096 167.820282,73.638985 
	C166.790237,66.842285 165.805954,60.412491 164.826828,53.664375 
	C164.561752,53.032150 164.291550,52.718246 164.100281,52.260674 
	C164.171982,51.768230 164.046707,51.477444 163.713745,50.887856 
	C162.899017,49.269657 162.173904,48.008247 161.448792,46.746841 
	C160.235245,44.257984 159.021698,41.769131 157.629669,38.914238 
	C154.743118,41.574554 151.989456,45.567711 147.982361,41.978771 
	C146.597961,40.738819 145.846970,36.937805 146.737762,35.519711 
	C147.675568,34.026779 151.020569,33.223007 153.138321,33.493225 
	C156.080292,33.868607 157.137772,36.676868 156.874756,38.616783 
	C160.219727,42.960030 162.837616,46.359196 165.760162,50.211170 
	C166.227905,51.060932 166.390976,51.457886 166.554047,51.854836 
	C171.370956,64.267525 171.065170,76.991142 168.640015,90.468460 
	C168.310333,91.731544 168.199615,92.356277 168.088898,92.981003 
M149.898392,38.427826 
	C151.145126,38.674038 152.391861,38.920254 153.638580,39.166470 
	C153.534103,38.260124 153.429626,37.353775 153.325150,36.447422 
	C152.204727,36.834240 151.084320,37.221058 149.898392,38.427826 
z"/>
<path fill="#AED9E3" opacity="1.000000" stroke="none" 
	d="
M125.008438,76.439651 
	C119.792549,80.705475 119.605865,81.916649 123.344345,87.235756 
	C125.841393,90.788559 125.366592,95.695320 122.393280,97.064392 
	C117.401863,99.362701 114.915550,97.265892 114.945450,90.416977 
	C114.889824,90.003738 115.010315,89.576805 115.378128,89.168716 
	C116.495201,86.165100 117.244469,83.569572 117.993744,80.974037 
	C118.990601,79.317886 119.987457,77.661728 121.381058,75.502007 
	C123.757530,72.544510 125.737274,70.090576 128.098312,67.372910 
	C129.715195,67.035225 130.950760,66.961258 131.888336,67.173462 
	C129.373947,70.491020 127.157547,73.522415 124.968002,76.531189 
	C124.994858,76.508560 125.008438,76.439651 125.008438,76.439651 
M118.870094,90.042549 
	C118.182648,91.178482 117.495201,92.314415 116.807747,93.450340 
	C117.899292,94.110611 119.014389,95.311798 120.075172,95.265617 
	C120.977219,95.226341 121.816666,93.749329 122.683815,92.908424 
	C121.656891,91.910370 120.629967,90.912315 118.870094,90.042549 
z"/>
<path fill="#3A4050" opacity="1.000000" stroke="none" 
	d="
M63.983353,76.634094 
	C54.660278,86.876030 36.669365,91.043182 33.564022,84.734116 
	C41.416931,82.610390 49.388706,80.454521 57.681820,78.150497 
	C58.003162,78.002342 58.014317,78.012642 58.060844,78.162392 
	C58.406841,78.206367 58.706314,78.100594 59.003193,77.997147 
	C59.000603,77.999474 58.998180,78.003731 58.998180,78.003731 
	C60.462292,77.084770 61.926407,76.165810 63.693443,75.128868 
	C63.993298,75.443794 63.990234,75.876709 63.983353,76.634094 
z"/>
<path fill="#ACCFDA" opacity="1.000000" stroke="none" 
	d="
M121.000824,72.073502 
	C119.938423,69.741844 118.548347,67.500610 117.875282,65.061508 
	C115.882080,57.838387 118.976570,51.968540 126.191750,50.160664 
	C130.114594,49.177742 134.361801,49.489315 139.172455,49.463287 
	C139.726303,50.438419 139.551331,51.805485 139.417313,51.801483 
	C136.963547,51.728203 134.515732,51.333557 132.064560,51.316807 
	C124.271729,51.263546 119.828094,55.246159 119.915695,62.385559 
	C120.001144,63.497501 120.120499,64.236046 120.220268,65.215393 
	C120.248230,65.803543 120.427460,66.058174 120.769768,66.519608 
	C121.057854,67.350342 121.314560,67.881569 121.683365,68.740936 
	C121.530579,70.070564 121.265701,71.072029 121.000824,72.073502 
z"/>
<path fill="#A8CAD3" opacity="1.000000" stroke="none" 
	d="
M163.027008,105.006485 
	C160.802292,106.766197 158.577560,108.525909 156.129135,110.540199 
	C152.636566,114.385597 149.153427,110.961754 145.409958,110.997101 
	C139.833466,106.872604 137.237152,101.268845 135.820908,95.109146 
	C136.690903,95.071037 137.220734,95.078575 137.815887,95.447250 
	C140.555527,99.630295 143.229828,103.452217 146.151825,107.546410 
	C149.267609,107.878517 152.135712,107.938354 155.284393,107.957809 
	C155.837585,107.666809 156.110199,107.416176 156.696655,107.070801 
	C158.904968,104.894913 160.799408,102.813766 162.693848,100.732620 
	C163.021576,100.965179 163.349304,101.197746 163.677032,101.430305 
	C163.460358,102.622368 163.243683,103.814423 163.027008,105.006485 
z"/>
<path fill="#383F4F" opacity="1.000000" stroke="none" 
	d="
M64.995651,160.622742 
	C65.035095,161.447693 65.027054,161.894135 65.012070,162.675583 
	C63.389545,158.580933 61.773956,154.151245 60.058292,148.964600 
	C58.907215,144.859543 57.856216,141.511459 56.805214,138.163361 
	C56.266575,138.297668 55.727932,138.431976 55.189293,138.566284 
	C54.122639,141.044434 53.055984,143.522568 51.994804,146.000671 
	C52.000275,146.000610 52.007465,145.992401 51.684128,146.020477 
	C50.573280,146.364136 49.785774,146.679733 48.998901,146.997467 
	C48.999535,146.999603 48.991898,146.997711 48.991898,146.997711 
	C48.006851,146.997711 47.021805,146.997711 46.694771,146.997711 
	C46.392483,145.225174 46.188538,143.824326 45.906403,142.439423 
	C45.678314,141.319794 44.992165,140.157074 45.168602,139.126343 
	C45.384163,137.867065 46.288448,136.725693 46.894901,135.533325 
	C47.747471,136.394287 48.896309,137.116501 49.380344,138.150055 
	C50.039288,139.557098 50.190712,141.201813 50.801373,143.754654 
	C51.429962,142.280289 51.583565,141.727646 51.878212,141.264801 
	C52.778069,139.851273 54.163517,137.164276 54.590912,137.305222 
	C56.491375,137.931885 59.047394,139.005234 59.676212,140.588425 
	C61.430145,145.004333 62.345142,149.753464 63.782722,154.688141 
	C64.298775,156.751556 64.623474,158.497894 64.995651,160.622742 
z"/>
<path fill="#ACCFDA" opacity="1.000000" stroke="none" 
	d="
M166.777283,51.551323 
	C166.390976,51.457886 166.227905,51.060932 166.038757,50.448360 
	C168.299973,49.862000 170.587250,49.491261 173.500473,49.357895 
	C178.997513,50.448055 182.498108,53.166615 184.838913,57.464115 
	C184.869675,57.817741 184.900436,58.171368 184.993835,59.190807 
	C184.201370,63.406067 183.346268,66.955513 182.491165,70.504951 
	C182.491165,70.504951 182.448074,70.534134 182.243378,70.811646 
	C181.699860,72.063553 181.361053,73.037956 181.022232,74.012352 
	C181.009048,74.419662 180.995865,74.826973 180.960876,75.539139 
	C179.871613,76.165649 178.804138,76.487320 176.846451,77.077240 
	C177.385269,75.293327 177.624634,73.872368 178.233047,72.632500 
	C179.167435,70.728294 180.623459,69.053215 181.387360,67.097061 
	C184.020523,60.354259 183.753830,54.393276 173.524811,52.495117 
	C171.347855,52.091148 169.175156,51.664181 166.777283,51.551323 
z"/>
<path fill="#3A4050" opacity="1.000000" stroke="none" 
	d="
M256.993561,113.001671 
	C257.310883,111.734772 257.628204,110.467873 257.737000,110.033508 
	C254.661270,108.088898 251.811615,106.287224 249.209641,104.642159 
	C246.128937,106.124397 242.749359,107.750443 239.186768,109.685013 
	C238.560211,109.993774 238.116669,109.994011 237.340729,109.985977 
	C237.428635,108.926270 237.545044,107.429977 238.321350,106.899681 
	C241.865936,104.478348 245.595749,102.328171 250.060043,99.589058 
	C249.976852,99.471832 250.584198,100.752724 251.561447,101.613831 
	C253.435852,103.265495 255.444534,104.795670 257.541260,106.154434 
	C259.239319,107.254822 262.741547,106.965538 260.003815,111.005081 
	C258.688171,111.931442 257.840881,112.466553 256.993561,113.001671 
z"/>
<path fill="#ACCFDA" opacity="1.000000" stroke="none" 
	d="
M145.208374,54.363289 
	C146.910843,53.957806 148.613312,53.552326 151.022537,52.944801 
	C155.117599,52.172558 158.505890,51.602352 161.762726,51.317738 
	C159.753708,52.399879 157.876160,53.196434 155.636612,53.987911 
	C153.106674,54.872559 150.938705,55.762287 148.467041,56.726425 
	C147.072937,57.374561 145.982529,57.948288 144.553986,58.644051 
	C142.133347,60.152836 140.050858,61.539585 137.605347,63.029419 
	C133.547241,63.349293 135.293869,61.501022 136.394104,59.982147 
	C137.823898,58.988804 138.922195,58.037163 140.319519,56.936863 
	C142.148499,55.979900 143.678436,55.171593 145.208374,54.363289 
z"/>
<path fill="#3A4050" opacity="1.000000" stroke="none" 
	d="
M63.001064,105.626297 
	C59.504356,106.772942 56.009426,107.546806 52.518501,108.319778 
	C51.353973,100.368462 40.584599,99.589973 34.864201,102.540321 
	C37.879807,98.303886 43.666393,97.739105 52.159622,101.297943 
	C53.372772,101.806290 53.875782,104.009392 55.010014,105.944283 
	C56.898933,105.187347 59.566162,104.118530 62.597771,103.034332 
	C62.975712,103.763802 62.989277,104.508659 63.001064,105.626297 
z"/>
<path fill="#233B4A" opacity="1.000000" stroke="none" 
	d="
M144.969971,54.078785 
	C143.678436,55.171593 142.148499,55.979900 140.267487,56.550648 
	C138.827133,55.255638 137.857010,53.461128 136.628876,53.262573 
	C129.631821,52.131371 123.196884,53.986465 121.650848,61.986763 
	C120.857086,61.999485 120.403343,62.005825 119.949600,62.012161 
	C119.828094,55.246159 124.271729,51.263546 132.064560,51.316807 
	C134.515732,51.333557 136.963547,51.728203 139.417313,51.801483 
	C139.551331,51.805485 139.726303,50.438419 139.589325,49.416885 
	C141.108170,50.680901 142.919861,52.237595 144.969971,54.078785 
z"/>
<path fill="#273644" opacity="1.000000" stroke="none" 
	d="
M186.568619,129.993271 
	C187.874542,132.790176 189.408447,136.298477 185.515198,137.370834 
	C183.694473,137.872314 181.002304,135.544724 178.908798,134.185577 
	C178.707108,134.054626 179.952682,131.694412 180.762802,130.185120 
	C182.712967,129.999023 184.426743,129.996887 186.568619,129.993271 
z"/>
<path fill="#546775" opacity="1.000000" stroke="none" 
	d="
M172.471008,129.825867 
	C172.459946,132.583588 172.117249,135.154312 171.728561,138.070084 
	C170.024704,137.821869 167.754929,131.551483 164.984818,137.921265 
	C164.984818,135.245895 164.984818,132.570526 165.005997,129.453491 
	C167.397903,129.220825 169.768631,129.429855 172.471008,129.825867 
z"/>
<path fill="#273644" opacity="1.000000" stroke="none" 
	d="
M161.894196,51.032150 
	C158.505890,51.602352 155.117599,52.172558 151.366913,52.776035 
	C152.410477,50.417740 153.816406,48.026173 154.789413,46.371063 
	C157.717575,46.722858 159.342072,46.918030 161.207672,46.930019 
	C162.173904,48.008247 162.899017,49.269657 163.236557,50.833672 
	C162.530716,51.101566 162.212448,51.066860 161.894196,51.032150 
z"/>
<path fill="#383F4F" opacity="1.000000" stroke="none" 
	d="
M63.995949,64.658936 
	C62.030205,62.145958 59.734921,59.467384 58.215759,56.403934 
	C57.198952,54.353504 57.284504,51.756413 57.455902,49.106438 
	C59.456264,53.595840 61.456627,58.085243 63.726006,62.793507 
	C63.995537,63.451447 63.996056,63.890526 63.995949,64.658936 
z"/>
<path fill="#233B4A" opacity="1.000000" stroke="none" 
	d="
M184.866455,57.003761 
	C182.498108,53.166615 178.997513,50.448055 173.839447,49.341862 
	C174.863220,49.059330 176.173889,49.008247 177.484695,49.004749 
	C184.526428,48.985966 184.953217,49.424477 184.866455,57.003761 
z"/>
<path fill="#223845" opacity="1.000000" stroke="none" 
	d="
M201.749832,129.834747 
	C201.671631,131.959030 201.337585,133.923248 201.003540,135.887482 
	C200.474716,136.051697 199.945892,136.215912 199.417068,136.380127 
	C198.215317,134.770218 197.013550,133.160324 195.904968,131.275238 
	C195.998169,131.000046 196.497711,130.979492 196.925659,130.824219 
	C197.582855,130.462082 197.795502,130.239380 197.991531,130.000824 
	C199.159027,129.892105 200.326508,129.783401 201.749832,129.834747 
z"/>
<path fill="#485B69" opacity="1.000000" stroke="none" 
	d="
M113.043182,130.755722 
	C111.930656,135.154358 114.717346,136.815948 117.860275,138.673996 
	C115.898514,138.996933 113.785522,138.996933 110.768188,138.996933 
	C110.971085,136.184769 111.167427,133.349594 111.443321,130.522156 
	C111.448425,130.469803 112.399620,130.509796 113.043182,130.755722 
z"/>
<path fill="#223845" opacity="1.000000" stroke="none" 
	d="
M182.849808,70.488388 
	C183.346268,66.955513 184.201370,63.406067 185.103180,59.436069 
	C189.289200,62.231792 188.487366,66.963234 182.849808,70.488388 
z"/>
<path fill="#2A3646" opacity="1.000000" stroke="none" 
	d="
M117.597229,80.989098 
	C117.244469,83.569572 116.495201,86.165100 115.410721,88.949326 
	C111.925171,83.473701 112.257469,82.201897 117.597229,80.989098 
z"/>
<path fill="#2D4050" opacity="1.000000" stroke="none" 
	d="
M121.025673,72.485413 
	C121.265701,71.072029 121.530579,70.070564 121.800201,68.628815 
	C121.804939,68.188530 122.034653,67.960213 122.395050,67.941376 
	C124.169678,67.614479 125.583923,67.306435 127.177307,67.158585 
	C127.356461,67.318779 127.717010,67.636635 127.717010,67.636635 
	C125.737274,70.090576 123.757530,72.544510 121.488991,75.181984 
	C121.150299,74.542786 121.100418,73.720055 121.025673,72.485413 
z"/>
<path fill="#546775" opacity="1.000000" stroke="none" 
	d="
M139.051819,136.623779 
	C135.969009,134.672745 137.051422,132.170837 138.929047,129.347916 
	C140.224396,129.192657 141.329666,129.335999 142.665131,129.723328 
	C139.163940,130.556137 138.778152,133.178360 139.051819,136.623779 
z"/>
<path fill="#223845" opacity="1.000000" stroke="none" 
	d="
M104.919144,133.891876 
	C104.937126,134.688446 104.955116,135.485016 104.583603,136.656570 
	C102.551300,136.399063 100.908501,135.766571 99.559242,134.925873 
	C101.541565,134.442398 103.230354,134.167130 104.919144,133.891876 
z"/>
<path fill="#546775" opacity="1.000000" stroke="none" 
	d="
M104.798622,133.676285 
	C103.230354,134.167130 101.541565,134.442398 99.242691,134.893707 
	C98.423210,135.046844 98.213814,135.023926 98.004425,135.001007 
	C98.049286,128.632492 98.368690,128.342422 103.588486,129.855423 
	C102.021378,130.492752 100.812912,130.878632 99.604454,131.264511 
	C99.706032,131.765762 99.807602,132.267014 99.909180,132.768265 
	C101.264435,132.768265 102.619682,132.768265 103.974937,132.768265 
	C104.240173,132.967758 104.474564,133.198563 104.798622,133.676285 
z"/>
<path fill="#485B69" opacity="1.000000" stroke="none" 
	d="
M98.002235,135.392288 
	C98.213814,135.023926 98.423210,135.046844 98.949158,135.101913 
	C100.908501,135.766571 102.551300,136.399063 104.575653,137.054962 
	C101.351532,140.041534 99.666634,139.727951 98.002235,135.392288 
z"/>
<path fill="#223845" opacity="1.000000" stroke="none" 
	d="
M103.979851,132.444366 
	C102.619682,132.768265 101.264435,132.768265 99.909180,132.768265 
	C99.807602,132.267014 99.706032,131.765762 99.604454,131.264511 
	C100.812912,130.878632 102.021378,130.492752 103.597687,130.139893 
	C103.971954,130.822098 103.978355,131.471298 103.979851,132.444366 
z"/>
<path fill="#2D3648" opacity="1.000000" stroke="none" 
	d="
M190.363861,71.273224 
	C191.130280,70.851776 191.833954,70.705475 192.537598,70.559174 
	C192.376572,71.285599 192.215530,72.012032 192.054504,72.738464 
	C191.470047,72.341766 190.885574,71.945076 190.363861,71.273224 
z"/>
<path fill="#373D4D" opacity="1.000000" stroke="none" 
	d="
M60.016548,11.988375 
	C59.728531,10.561699 59.440517,9.135022 59.072334,7.352702 
	C60.081516,8.827168 61.170872,10.657278 61.883606,12.625355 
	C61.010170,12.505007 60.513355,12.246691 60.016548,11.988375 
z"/>
<path fill="#2E3444" opacity="1.000000" stroke="none" 
	d="
M60.009056,11.993832 
	C60.513355,12.246691 61.010170,12.505007 61.754852,12.895000 
	C62.215317,13.534207 62.427910,14.041735 62.882072,15.107899 
	C63.413082,16.776083 63.702522,17.885632 63.706791,18.895111 
	C62.614204,18.196266 61.806789,17.597486 60.999374,16.998707 
	C60.999374,16.998709 61.000000,17.000000 60.922897,16.644501 
	C60.561310,14.862636 60.276817,13.436269 59.992325,12.009903 
	C59.992325,12.009903 60.001564,11.999288 60.009056,11.993832 
z"/>
<path fill="#373D4D" opacity="1.000000" stroke="none" 
	d="
M63.991962,18.995178 
	C63.702522,17.885632 63.413082,16.776083 63.047371,15.330269 
	C63.888000,15.809538 64.804909,16.625074 65.875252,17.720459 
	C66.027283,18.750708 66.025871,19.501108 65.815041,20.432510 
	C65.067734,20.074068 64.529846,19.534622 63.991962,18.995178 
z"/>
<path fill="#546775" opacity="1.000000" stroke="none" 
	d="
M145.025375,137.817017 
	C143.132629,137.905640 141.245972,137.722977 139.168579,137.264786 
	C140.694870,137.002594 142.411880,137.015915 144.558411,137.016968 
	C145.002441,137.185059 145.016937,137.365387 145.025375,137.817017 
z"/>
<path fill="#3A4050" opacity="1.000000" stroke="none" 
	d="
M239.076141,110.303452 
	C239.754486,110.847816 240.502029,111.696106 241.126755,112.786819 
	C240.384415,112.221962 239.764893,111.414673 239.076141,110.303452 
z"/>
<path fill="#223845" opacity="1.000000" stroke="none" 
	d="
M181.317413,73.842743 
	C181.361053,73.037956 181.699860,72.063553 182.250137,70.836777 
	C182.178604,71.613968 181.895599,72.643555 181.317413,73.842743 
z"/>
<path fill="#2A3344" opacity="1.000000" stroke="none" 
	d="
M197.815674,130.150513 
	C197.795502,130.239380 197.582855,130.462082 197.175507,130.815582 
	C197.198227,130.728638 197.412369,130.507950 197.815674,130.150513 
z"/>
<path fill="#313244" opacity="1.000000" stroke="none" 
	d="
M256.767090,112.996964 
	C257.840881,112.466553 258.688171,111.931442 259.765259,111.195724 
	C262.270477,111.668037 264.527527,112.822731 266.825226,112.910172 
	C271.155426,113.074966 273.346710,114.724953 273.013367,119.236771 
	C272.867279,121.213791 273.280731,123.298286 272.787842,125.161423 
	C272.430878,126.510803 271.002258,128.590820 270.047821,128.592834 
	C265.870270,128.601593 261.691345,127.971367 257.256470,127.286652 
	C256.999176,125.931442 256.998383,124.862579 256.998108,122.980759 
	C256.663666,120.075981 256.328644,117.984146 255.993622,115.892319 
	C255.993622,115.892319 256.001801,115.426788 256.055359,115.077644 
	C256.165985,114.470749 256.128418,114.225601 255.996201,113.993065 
	C255.996201,113.993065 256.000000,113.999550 256.020447,113.747162 
	C256.056488,113.324623 256.072083,113.154472 256.087708,112.984322 
	C256.087708,112.984322 256.540649,112.992256 256.767090,112.996964 
z"/>
<path fill="#383F4F" opacity="1.000000" stroke="none" 
	d="
M251.310684,74.846252 
	C251.503952,70.353325 252.956772,66.246796 257.034210,65.525513 
	C260.388397,64.932182 264.750458,65.754257 267.600861,67.596642 
	C271.895660,70.372604 270.860657,75.431305 269.195618,79.408615 
	C267.788422,82.769997 264.587555,84.670288 260.583618,83.891884 
	C255.733170,82.948898 251.623886,81.113106 251.310684,74.846252 
M263.445038,69.822220 
	C260.184692,68.586288 257.052032,69.177429 256.225769,72.583298 
	C255.785172,74.399460 257.247406,77.534874 258.850952,78.709595 
	C260.065918,79.599609 263.626404,79.068069 264.792206,77.862640 
	C267.003418,75.576248 267.155396,72.474411 263.445038,69.822220 
z"/>
<path fill="#313244" opacity="1.000000" stroke="none" 
	d="
M246.844955,79.764023 
	C243.266190,81.553383 241.460205,80.526276 241.049911,76.933098 
	C240.786423,74.625656 239.985367,72.255226 240.312943,70.044556 
	C240.568787,68.317909 242.190552,66.793655 243.205368,65.179459 
	C244.980087,66.311966 248.154022,67.325035 248.262817,68.599731 
	C248.568893,72.185532 247.613449,75.878998 246.844955,79.764023 
z"/>
<path fill="#343A4A" opacity="1.000000" stroke="none" 
	d="
M241.007385,26.993359 
	C242.721039,27.440382 244.605606,28.585970 246.119308,28.215668 
	C253.366348,26.442814 253.792267,26.601921 254.986542,34.835464 
	C254.988663,35.675678 254.983871,35.850338 254.979095,36.024994 
	C253.611816,34.059227 252.244537,32.093456 251.274384,30.698627 
	C247.035446,30.585716 242.984604,30.754055 239.045059,30.170692 
	C238.108170,30.031960 237.543747,27.377869 237.672775,25.244751 
	C238.599884,25.762123 239.526978,26.279495 240.727036,26.898434 
	C241.000000,27.000000 241.007385,26.993361 241.007385,26.993359 
z"/>
<path fill="#3A4050" opacity="1.000000" stroke="none" 
	d="
M271.085052,90.318939 
	C261.225555,89.028992 251.688492,87.603989 242.151413,86.178986 
	C242.225052,85.634544 242.298706,85.090103 242.372345,84.545662 
	C252.694687,84.552910 262.577515,91.003326 273.925873,87.547691 
	C272.946075,88.573296 272.176788,89.378586 271.085052,90.318939 
z"/>
<path fill="#3A4050" opacity="1.000000" stroke="none" 
	d="
M233.825089,68.536240 
	C234.517075,65.396065 235.096008,62.623070 235.768387,59.872917 
	C237.171539,54.133614 241.120712,52.153950 247.898239,54.506306 
	C242.977844,55.155010 238.393906,55.341873 237.169586,60.522411 
	C236.219086,64.544266 235.497345,68.620171 233.488449,72.652351 
	C233.577087,71.406151 233.665710,70.159958 233.825089,68.536240 
z"/>
<path fill="#373D4D" opacity="1.000000" stroke="none" 
	d="
M285.091156,104.505829 
	C285.056610,112.459335 285.056610,119.989204 285.056610,127.519073 
	C284.772217,127.496208 284.487854,127.473343 284.203461,127.450478 
	C284.203461,117.926788 284.203461,108.403091 284.203461,98.879395 
	C284.758636,98.904266 285.313812,98.929138 285.868988,98.954018 
	C285.621216,100.663406 285.373444,102.372803 285.091156,104.505829 
z"/>
<path fill="#343A4A" opacity="1.000000" stroke="none" 
	d="
M256.134155,27.579889 
	C255.099197,22.097784 250.394058,25.820358 247.618866,23.811850 
	C253.472672,18.766855 256.381897,25.386114 261.123169,26.648367 
	C260.149719,27.928169 259.330872,29.004726 258.511993,30.081280 
	C257.753113,29.358696 256.994202,28.636120 256.134155,27.579889 
z"/>
<path fill="#3A4050" opacity="1.000000" stroke="none" 
	d="
M250.160309,59.223778 
	C250.947998,60.451420 251.370178,61.603207 251.792358,62.754997 
	C250.744095,62.670670 249.693207,62.610256 248.648239,62.495884 
	C247.371262,62.356113 246.066406,62.295864 244.834045,61.971550 
	C243.525406,61.627163 242.287582,61.013691 241.018845,60.517727 
	C241.230515,59.915596 241.442184,59.313461 241.653854,58.711330 
	C244.367508,58.856861 247.081161,59.002392 250.160309,59.223778 
z"/>
<path fill="#373D4D" opacity="1.000000" stroke="none" 
	d="
M256.015869,37.983849 
	C258.035522,36.100903 260.055176,34.217957 262.074860,32.335007 
	C262.350159,32.415375 262.625458,32.495747 262.900757,32.576115 
	C261.686523,34.969177 260.546753,37.408581 259.134521,39.678455 
	C259.003601,39.888870 257.141815,39.022396 256.042786,38.326958 
	C256.001892,37.997971 256.015869,37.983849 256.015869,37.983849 
z"/>
<path fill="#373D4D" opacity="1.000000" stroke="none" 
	d="
M241.003159,26.996300 
	C240.371796,23.628775 239.737259,20.264952 239.102737,16.901129 
	C239.326981,16.819237 239.551224,16.737345 239.775467,16.655453 
	C241.268814,19.620905 242.762146,22.586357 244.442078,25.922352 
	C243.619720,26.222383 242.625183,26.585230 241.319031,26.970718 
	C241.007385,26.993361 241.000000,27.000000 241.003159,26.996300 
z"/>
<path fill="#3A4050" opacity="1.000000" stroke="none" 
	d="
M273.847961,81.808105 
	C274.029999,81.816483 274.138733,81.890160 274.247498,81.963837 
	C274.089905,81.933693 273.932312,81.903549 273.847961,81.808105 
z"/>
<path fill="#373D4D" opacity="1.000000" stroke="none" 
	d="
M263.807404,29.139805 
	C263.815826,28.959574 263.888763,28.851866 263.961700,28.744156 
	C264.045532,28.838261 264.129333,28.932367 264.213135,29.026476 
	C264.099396,29.088428 263.985657,29.150379 263.807404,29.139805 
z"/>
<path fill="#373D4D" opacity="1.000000" stroke="none" 
	d="
M255.059113,36.294235 
	C254.983871,35.850338 254.988663,35.675678 254.999695,35.238735 
	C255.321152,35.764889 255.636368,36.553326 255.983734,37.662804 
	C256.015869,37.983849 256.001892,37.997971 255.994186,38.002777 
	C255.704025,37.526218 255.421570,37.044849 255.059113,36.294235 
z"/>
<path fill="#343A4A" opacity="1.000000" stroke="none" 
	d="
M236.549515,21.705549 
	C236.521393,21.716080 236.577637,21.695021 236.549515,21.705549 
z"/>
<path fill="#343A4A" opacity="1.000000" stroke="none" 
	d="
M63.706791,18.895111 
	C64.529846,19.534622 65.067734,20.074068 65.816010,20.807720 
	C69.258568,22.565485 69.715233,25.503601 68.361946,28.108829 
	C67.392891,29.974377 64.938362,31.068302 63.146603,32.506496 
	C62.868298,32.132614 62.589989,31.758730 62.311684,31.384846 
	C63.855022,29.117832 65.398361,26.850821 66.890671,24.658777 
	C60.375099,23.113192 55.055618,21.851334 49.736134,20.589476 
	C49.662357,20.135023 49.588581,19.680571 49.514805,19.226118 
	C51.543320,19.167093 53.591785,19.262228 55.594383,19.002996 
	C57.375820,18.772398 59.106422,18.149160 60.929420,17.348963 
	C61.806789,17.597486 62.614204,18.196266 63.706791,18.895111 
z"/>
<path fill="#373D4D" opacity="1.000000" stroke="none" 
	d="
M58.010101,149.002441 
	C53.112801,152.696228 56.646523,156.305832 58.723087,159.929993 
	C58.411373,160.228317 58.099655,160.526657 57.787941,160.824982 
	C56.332226,160.239487 53.928425,159.977478 53.597679,159.008133 
	C52.585251,156.040939 52.369164,152.802032 51.777431,149.276047 
	C48.931969,149.833694 44.754803,150.652313 40.577633,151.470932 
	C40.481976,151.203705 40.386314,150.936493 40.290653,150.669266 
	C43.014450,149.604416 45.738247,148.539581 48.726971,147.236221 
	C48.991898,146.997711 48.999535,146.999603 49.322052,146.973511 
	C50.432205,146.629074 51.219837,146.310745 52.007469,145.992401 
	C52.007465,145.992401 52.000275,146.000610 52.368256,145.999939 
	C54.934216,146.227600 58.177967,144.619446 58.010101,149.002441 
z"/>
<path fill="#3A4050" opacity="1.000000" stroke="none" 
	d="
M51.004745,114.269485 
	C53.719711,115.888145 56.149021,117.552826 58.816624,119.380791 
	C59.403656,117.717339 60.024868,115.957024 60.646084,114.196709 
	C61.050251,114.308479 61.454422,114.420250 61.858589,114.532021 
	C61.117767,117.135406 60.376942,119.738800 59.636124,122.342194 
	C57.123226,121.010582 54.610329,119.678970 51.967602,118.278564 
	C47.807308,121.518044 36.315098,120.051735 33.450432,115.583504 
	C36.719635,116.377205 39.999950,116.936958 43.113781,117.989296 
	C47.036804,119.315117 49.433495,118.128357 51.004745,114.269485 
z"/>
<path fill="#373D4D" opacity="1.000000" stroke="none" 
	d="
M52.563530,74.167770 
	C51.643055,76.343193 50.764721,78.152214 49.886383,79.961235 
	C48.425430,78.941750 45.916023,78.083717 45.728836,76.868095 
	C45.374428,74.566444 45.558029,71.328110 46.959408,69.805420 
	C49.191292,67.380318 52.269371,69.681946 52.563530,74.167770 
z"/>
<path fill="#343A4A" opacity="1.000000" stroke="none" 
	d="
M34.022385,26.836418 
	C34.371334,23.570526 34.710716,20.693329 35.083202,17.535452 
	C37.504166,20.813072 36.905602,30.824562 33.802540,37.554737 
	C32.770401,35.391293 31.985167,33.745377 31.199932,32.099461 
	C31.610687,32.095230 32.021442,32.091003 32.432198,32.086773 
	C32.959068,30.466219 33.485939,28.845665 34.022385,26.836418 
z"/>
<path fill="#2D3343" opacity="1.000000" stroke="none" 
	d="
M58.337708,149.001511 
	C58.177967,144.619446 54.934216,146.227600 52.362782,146.000000 
	C53.055984,143.522568 54.122639,141.044434 55.189293,138.566284 
	C55.727932,138.431976 56.266575,138.297668 56.805214,138.163361 
	C57.856216,141.511459 58.907215,144.859543 59.966663,148.602386 
	C59.538513,148.998291 59.101913,148.999435 58.337708,149.001511 
z"/>
<path fill="#383F4F" opacity="1.000000" stroke="none" 
	d="
M32.999809,73.005798 
	C33.331924,71.229263 33.664040,69.452728 34.053757,67.368057 
	C37.911499,67.083908 41.652805,66.808342 46.891792,66.422455 
	C42.784962,68.487938 39.974335,69.901512 36.752251,71.734367 
	C35.227139,72.437698 34.113476,72.721748 32.999809,73.005798 
z"/>
<path fill="#2D3343" opacity="1.000000" stroke="none" 
	d="
M32.999847,73.002716 
	C34.113476,72.721748 35.227139,72.437698 36.682358,72.098587 
	C37.201694,72.274345 37.394306,72.492043 37.845139,73.170303 
	C37.980053,75.429504 37.871578,77.215012 37.698429,80.065063 
	C35.369469,78.498222 34.184292,77.700874 32.999119,76.903534 
	C33.000664,76.485779 33.002209,76.068024 33.005844,74.998741 
	C33.006775,73.896904 33.005619,73.446587 33.004459,72.996277 
	C33.004459,72.996277 32.999882,72.999634 32.999847,73.002716 
z"/>
<path fill="#373D4D" opacity="1.000000" stroke="none" 
	d="
M22.906492,59.894970 
	C22.231739,64.096237 21.519531,67.955704 20.807323,71.815170 
	C20.491125,71.781799 20.174929,71.748428 19.858732,71.715057 
	C20.339710,67.474335 20.820688,63.233616 21.301666,58.992897 
	C21.824125,59.179653 22.346581,59.366409 22.906492,59.894970 
z"/>
<path fill="#383F4F" opacity="1.000000" stroke="none" 
	d="
M49.019360,53.019062 
	C44.180332,53.994808 39.341301,54.970554 34.502274,55.946301 
	C34.421932,55.290245 34.341591,54.634190 34.261253,53.978134 
	C38.864071,53.646027 43.466892,53.313915 48.535461,52.991360 
	C49.001209,53.000912 49.019360,53.019062 49.019360,53.019062 
z"/>
<path fill="#383F4F" opacity="1.000000" stroke="none" 
	d="
M33.037209,77.280846 
	C34.184292,77.700874 35.369469,78.498222 37.698429,80.065063 
	C37.871578,77.215012 37.980053,75.429504 38.005898,73.318527 
	C38.452995,74.809113 39.315189,76.618248 39.353168,78.444519 
	C39.368950,79.203293 37.299644,80.830688 36.745255,80.613884 
	C35.350025,80.068237 34.277306,78.697899 33.037209,77.280846 
z"/>
<path fill="#383F4F" opacity="1.000000" stroke="none" 
	d="
M48.682297,36.653854 
	C50.533562,35.807274 52.079353,35.108986 53.625145,34.410698 
	C53.831322,34.855835 54.037495,35.300972 54.243671,35.746109 
	C51.390057,37.160084 48.536438,38.574055 45.682823,39.988029 
	C45.452835,39.569412 45.222847,39.150791 44.992855,38.732170 
	C46.120846,38.088833 47.248837,37.445492 48.682297,36.653854 
z"/>
<path fill="#383F4F" opacity="1.000000" stroke="none" 
	d="
M48.992989,52.991440 
	C50.052582,52.027382 51.120396,51.072796 52.188206,50.118210 
	C52.495018,50.573044 52.801826,51.027882 53.108639,51.482716 
	C51.967144,51.974792 50.825653,52.466866 49.351761,52.989002 
	C49.019360,53.019062 49.001209,53.000912 48.992989,52.991440 
z"/>
<path fill="#343A4A" opacity="1.000000" stroke="none" 
	d="
M59.718849,12.143969 
	C60.276817,13.436269 60.561310,14.862636 60.923351,16.645004 
	C59.022701,15.907439 57.124931,14.787380 59.718849,12.143969 
z"/>
<path fill="#373D4D" opacity="1.000000" stroke="none" 
	d="
M48.949780,157.748642 
	C49.406048,157.755325 49.694878,157.840271 49.983711,157.925232 
	C49.692398,158.210602 49.401085,158.495972 49.109768,158.781326 
	C49.000626,158.463196 48.891483,158.145050 48.949780,157.748642 
z"/>
<path fill="#383F4F" opacity="1.000000" stroke="none" 
	d="
M32.878723,73.182442 
	C33.005619,73.446587 33.006775,73.896904 33.006466,74.685425 
	C32.920998,74.471954 32.836994,73.920280 32.878723,73.182442 
z"/>
<path fill="#373D4D" opacity="1.000000" stroke="none" 
	d="
M21.467422,76.043243 
	C21.438959,76.017944 21.495886,76.068550 21.467422,76.043243 
z"/>
<path fill="#383F4F" opacity="1.000000" stroke="none" 
	d="
M42.009872,40.571213 
	C41.969002,40.569305 42.050743,40.573116 42.009872,40.571213 
z"/>
<path fill="#383F4F" opacity="1.000000" stroke="none" 
	d="
M56.492149,33.507675 
	C56.484028,33.486317 56.500275,33.529034 56.492149,33.507675 
z"/>
<path fill="#3A4050" opacity="1.000000" stroke="none" 
	d="
M57.998112,77.995514 
	C58.231323,77.812469 58.487553,77.771156 58.879963,77.934235 
	C58.998180,78.003731 59.000603,77.999474 58.755295,78.001472 
	C58.509991,78.003471 58.014317,78.012642 58.014317,78.012642 
	C58.014317,78.012642 58.003162,78.002342 57.998112,77.995514 
z"/>
<path fill="#383F4F" opacity="1.000000" stroke="none" 
	d="
M41.503220,147.494904 
	C41.509502,147.513016 41.496933,147.476791 41.503220,147.494904 
z"/>
<path fill="#313244" opacity="1.000000" stroke="none" 
	d="
M8.553453,34.287354 
	C4.111967,33.163433 2.378716,27.098055 5.447815,24.425449 
	C7.735404,22.433390 10.079185,23.529703 10.343472,25.926386 
	C10.635989,28.579071 9.438436,31.396069 8.553453,34.287354 
z"/>
<path fill="#A8D3DD" opacity="1.000000" stroke="none" 
	d="
M186.743683,89.752937 
	C187.900681,96.298904 186.463242,97.711586 180.105286,97.320267 
	C178.598755,97.227547 177.036255,98.044189 174.890198,98.664085 
	C173.849472,98.989960 173.418045,99.094292 172.532410,99.153946 
	C168.465988,99.007584 164.853821,98.905884 160.962982,98.568237 
	C159.482834,98.163757 158.281372,97.995224 156.812012,97.583176 
	C153.018082,96.229401 149.492035,95.119141 145.615723,93.922226 
	C141.900864,91.871620 138.536270,89.907677 135.109619,87.748795 
	C135.047577,87.553871 134.941223,87.158852 134.957092,86.772446 
	C134.974716,85.612640 134.976486,84.839241 135.305786,84.166748 
	C138.967590,86.237953 142.301865,88.208260 145.873749,90.452141 
	C153.640137,94.474625 161.429428,97.209404 170.009766,96.864807 
	C170.457642,96.883888 170.905502,96.902969 171.960388,96.876755 
	C172.843750,96.602547 173.120087,96.373650 173.396423,96.144760 
	C174.625381,95.194870 176.584030,94.470619 176.959381,93.256775 
	C178.762985,87.424156 181.178162,86.338470 186.743683,89.752937 
z"/>
<path fill="#223845" opacity="1.000000" stroke="none" 
	d="
M169.835510,96.610931 
	C161.429428,97.209404 153.640137,94.474625 146.310471,90.420570 
	C149.180618,90.750252 152.096176,90.903465 154.476028,92.111778 
	C161.136795,95.493637 162.985397,94.398941 164.084564,86.915924 
	C164.729950,82.522224 166.565704,78.303375 167.866028,74.005882 
	C167.324478,79.394096 166.707092,84.776543 166.297241,90.174759 
	C166.200531,91.448639 166.802414,92.775566 167.502441,93.951019 
	C168.501724,94.668304 169.081482,95.512680 169.835510,96.610931 
z"/>
<path fill="#223845" opacity="1.000000" stroke="none" 
	d="
M168.242584,92.710999 
	C168.199615,92.356277 168.310333,91.731544 168.648376,90.877975 
	C168.715897,91.246429 168.556091,91.843712 168.242584,92.710999 
z"/>
<path fill="#223845" opacity="1.000000" stroke="none" 
	d="
M173.160660,96.238701 
	C173.120087,96.373650 172.843750,96.602547 172.290955,96.807617 
	C172.317963,96.633400 172.621429,96.483025 173.160660,96.238701 
z"/>
<path fill="#343A4A" opacity="1.000000" stroke="none" 
	d="
M135.171677,87.943726 
	C138.536270,89.907677 141.900864,91.871620 145.628143,94.329300 
	C147.153992,99.488464 150.425476,100.374611 157.079895,97.826691 
	C158.281372,97.995224 159.482834,98.163757 160.691833,98.806931 
	C158.324448,101.501289 152.804993,101.390846 154.585419,106.986748 
	C151.455902,105.651161 148.729462,104.317230 145.757858,102.750534 
	C142.925323,100.040543 140.337952,97.563332 137.750565,95.086121 
	C137.220734,95.078575 136.690903,95.071037 135.972076,94.872681 
	C135.327133,93.657761 134.846603,92.643730 134.421387,91.607010 
	C133.882858,90.293953 133.389313,88.962456 133.194824,87.364990 
	C133.684738,87.129364 133.856201,87.167664 134.208954,87.342804 
	C134.646393,87.641594 134.906876,87.796280 135.171677,87.943726 
z"/>
<path fill="#ADD4E0" opacity="1.000000" stroke="none" 
	d="
M134.027679,87.205956 
	C133.856201,87.167664 133.684738,87.129364 133.253387,87.046997 
	C130.420471,83.712479 127.847450,80.422020 125.141434,76.785614 
	C125.008438,76.439651 124.994858,76.508560 125.302795,76.460892 
	C128.733246,78.964096 131.855759,81.514977 134.978271,84.065849 
	C134.976486,84.839241 134.974716,85.612640 134.726608,86.743668 
	C134.480270,87.101295 134.027679,87.205956 134.027679,87.205956 
z"/>
<path fill="#313244" opacity="1.000000" stroke="none" 
	d="
M130.116379,97.171814 
	C131.036652,98.686073 131.696991,100.050743 132.357330,101.415405 
	C131.731323,101.748245 131.105316,102.081085 130.479294,102.413925 
	C129.493820,100.931633 128.508347,99.449333 127.522858,97.967041 
	C128.300720,97.652107 129.078568,97.337166 130.116379,97.171814 
z"/>
<path fill="#3A4050" opacity="1.000000" stroke="none" 
	d="
M255.817535,116.156113 
	C256.328644,117.984146 256.663666,120.075981 256.997498,122.579948 
	C254.572571,122.013016 252.148788,121.033951 249.028183,120.020035 
	C247.884232,119.991486 247.437119,119.997787 246.990005,120.004089 
	C248.297424,119.506317 249.828995,118.313187 250.868011,118.648087 
	C253.438705,119.476677 254.879730,118.959480 255.817535,116.156113 
z"/>
<path fill="#2E3444" opacity="1.000000" stroke="none" 
	d="
M246.782227,120.105026 
	C247.437119,119.997787 247.884232,119.991486 248.666748,119.981552 
	C248.193710,120.519745 247.385300,121.061562 246.576889,121.603378 
	C246.576080,121.137581 246.575272,120.671768 246.782227,120.105026 
z"/>
<path fill="#3A4050" opacity="1.000000" stroke="none" 
	d="
M256.003601,114.235062 
	C256.128418,114.225601 256.165985,114.470749 256.060059,114.844894 
	C256.011230,114.961296 256.010986,114.477066 256.003601,114.235062 
z"/>
<path fill="#3A4050" opacity="1.000000" stroke="none" 
	d="
M255.994720,113.095665 
	C256.072083,113.154472 256.056488,113.324623 256.021729,113.750412 
	C255.807632,113.754677 255.774033,113.488327 255.994720,113.095665 
z"/>
<path fill="#273644" opacity="1.000000" stroke="none" 
	d="
M154.988495,106.988403 
	C152.804993,101.390846 158.324448,101.501289 160.970490,99.042877 
	C164.853821,98.905884 168.465988,99.007584 172.581970,99.461403 
	C173.721176,100.554825 174.356583,101.296127 174.991989,102.037430 
	C174.993591,102.775566 174.995209,103.513702 174.582031,104.627602 
	C171.446442,105.338585 168.725647,105.673820 166.004837,106.009048 
	C165.217407,105.719414 164.429993,105.429771 163.334778,105.073303 
	C163.243683,103.814423 163.460358,102.622368 163.677032,101.430305 
	C163.349304,101.197746 163.021576,100.965179 162.693848,100.732620 
	C160.799408,102.813766 158.904968,104.894913 156.352768,107.020920 
	C155.464783,107.045364 155.234558,107.024940 155.001541,107.001602 
	C154.998764,106.998695 154.988495,106.988403 154.988495,106.988403 
z"/>
<path fill="#313244" opacity="1.000000" stroke="none" 
	d="
M166.087936,106.382126 
	C168.725647,105.673820 171.446442,105.338585 174.582092,104.996674 
	C176.149612,105.644882 177.302292,106.299774 178.454956,106.954666 
	C177.312225,107.627373 176.084656,108.975616 175.042831,108.844788 
	C172.045364,108.468384 169.122940,107.494400 166.087936,106.382126 
z"/>
<path fill="#313244" opacity="1.000000" stroke="none" 
	d="
M175.282013,102.082352 
	C174.356583,101.296127 173.721176,100.554825 173.036194,99.506073 
	C173.418045,99.094292 173.849472,98.989960 174.613892,98.893265 
	C176.066742,99.732933 177.186584,100.564972 179.289322,102.127281 
	C177.262390,102.127281 176.417221,102.127281 175.282013,102.082352 
z"/>
<path fill="#2D3343" opacity="1.000000" stroke="none" 
	d="
M253.350174,145.056839 
	C249.869217,148.905014 246.397186,152.433640 242.434723,156.460693 
	C240.501572,149.993881 246.433594,142.203369 251.394287,142.780930 
	C252.115372,142.864883 252.707367,144.057632 253.350174,145.056839 
z"/>
<path fill="#303446" opacity="1.000000" stroke="none" 
	d="
M135.305786,84.166748 
	C131.855759,81.514977 128.733246,78.964096 125.275940,76.483521 
	C127.157547,73.522415 129.373947,70.491020 132.201324,67.208298 
	C134.602707,65.961899 136.393143,64.966827 138.543076,63.957222 
	C141.968826,63.317787 144.668762,62.288139 144.892120,58.522015 
	C145.982529,57.948288 147.072937,57.374561 148.655121,56.978085 
	C152.992859,59.485634 154.005310,55.676743 155.998596,53.992992 
	C157.876160,53.196434 159.753708,52.399879 161.762726,51.317738 
	C162.212448,51.066860 162.530716,51.101566 163.326172,51.190464 
	C164.046707,51.477444 164.171982,51.768230 164.226120,52.529091 
	C164.455902,53.288345 164.638794,53.635517 164.821686,53.982689 
	C165.805954,60.412491 166.790237,66.842285 167.820282,73.638985 
	C166.565704,78.303375 164.729950,82.522224 164.084564,86.915924 
	C162.985397,94.398941 161.136795,95.493637 154.476028,92.111778 
	C152.096176,90.903465 149.180618,90.750252 146.072876,90.147003 
	C142.301865,88.208260 138.967590,86.237953 135.305786,84.166748 
M153.774124,71.217224 
	C153.774124,71.217224 153.778427,71.319221 153.645767,70.664871 
	C151.462585,67.169434 149.650101,67.934410 147.974182,71.586205 
	C147.974182,71.586205 147.835892,72.005241 147.541245,72.525002 
	C147.368805,72.884163 147.196381,73.243332 147.299438,74.213791 
	C149.067551,79.713844 150.293396,80.214790 154.841049,76.883514 
	C158.505447,74.159874 156.690292,72.567909 153.774124,71.217224 
z"/>
<path fill="#223845" opacity="1.000000" stroke="none" 
	d="
M149.931152,38.017853 
	C151.084320,37.221058 152.204727,36.834240 153.325134,36.447426 
	C153.429626,37.353775 153.534103,38.260124 153.638580,39.166470 
	C152.391861,38.920254 151.145126,38.674038 149.931152,38.017853 
z"/>
<path fill="#273644" opacity="1.000000" stroke="none" 
	d="
M164.826828,53.664371 
	C164.638794,53.635517 164.455902,53.288345 164.147171,52.672756 
	C164.291550,52.718246 164.561752,53.032150 164.826828,53.664371 
z"/>
<path fill="#2D4050" opacity="1.000000" stroke="none" 
	d="
M138.183563,63.971756 
	C136.393143,64.966827 134.602707,65.961899 132.499313,66.922134 
	C130.950760,66.961258 129.715195,67.035225 128.098312,67.372910 
	C127.717010,67.636635 127.356461,67.318779 127.187157,66.756989 
	C128.003601,58.244137 130.485657,56.550606 136.062607,60.023846 
	C135.293869,61.501022 133.547241,63.349293 137.662537,63.290054 
	C138.116364,63.622326 138.149963,63.797043 138.183563,63.971756 
z"/>
<path fill="#2D4050" opacity="1.000000" stroke="none" 
	d="
M119.236572,89.978409 
	C120.629967,90.912315 121.656891,91.910370 122.683807,92.908424 
	C121.816666,93.749329 120.977219,95.226341 120.075172,95.265617 
	C119.014389,95.311798 117.899292,94.110611 116.807755,93.450340 
	C117.495201,92.314415 118.182648,91.178482 119.236572,89.978409 
z"/>
<path fill="#2E3444" opacity="1.000000" stroke="none" 
	d="
M58.060844,78.162392 
	C58.014317,78.012642 58.509991,78.003471 58.757889,77.999146 
	C58.706314,78.100594 58.406841,78.206367 58.060844,78.162392 
z"/>
<path fill="#313244" opacity="1.000000" stroke="none" 
	d="
M119.915695,62.385559 
	C120.403343,62.005825 120.857086,61.999485 121.623962,62.305832 
	C121.640289,63.399517 121.343475,64.180519 120.844986,64.966339 
	C120.643318,64.971153 120.239861,64.974586 120.239861,64.974586 
	C120.120499,64.236046 120.001144,63.497501 119.915695,62.385559 
z"/>
<path fill="#2D4050" opacity="1.000000" stroke="none" 
	d="
M121.688103,68.300659 
	C121.314560,67.881569 121.057854,67.350342 120.868515,66.442505 
	C120.935867,66.065887 121.137016,65.920135 121.276398,66.162674 
	C121.622078,66.923538 121.828369,67.441879 122.034653,67.960213 
	C122.034653,67.960213 121.804939,68.188530 121.688103,68.300659 
z"/>
<path fill="#2D4050" opacity="1.000000" stroke="none" 
	d="
M120.220268,65.215393 
	C120.239861,64.974586 120.643318,64.971153 120.865471,65.206451 
	C121.087624,65.441757 121.137016,65.920135 121.137016,65.920135 
	C121.137016,65.920135 120.935867,66.065887 120.837128,66.142990 
	C120.427460,66.058174 120.248230,65.803543 120.220268,65.215393 
z"/>
<path fill="#233B4A" opacity="1.000000" stroke="none" 
	d="
M137.815887,95.447250 
	C140.337952,97.563332 142.925323,100.040543 145.754608,103.180130 
	C145.965714,104.986382 145.934921,106.130264 145.904144,107.274139 
	C143.229828,103.452217 140.555527,99.630295 137.815887,95.447250 
z"/>
<path fill="#273644" opacity="1.000000" stroke="none" 
	d="
M146.151825,107.546410 
	C145.934921,106.130264 145.965714,104.986382 145.999756,103.412903 
	C148.729462,104.317230 151.455902,105.651161 154.585419,106.986748 
	C154.988495,106.988403 154.998764,106.998695 155.003998,107.249939 
	C155.009247,107.501190 155.003799,107.998184 155.003799,107.998184 
	C152.135712,107.938354 149.267609,107.878517 146.151825,107.546410 
z"/>
<path fill="#343A4A" opacity="1.000000" stroke="none" 
	d="
M155.284393,107.957809 
	C155.003799,107.998184 155.009247,107.501190 155.006775,107.252853 
	C155.234558,107.024940 155.464783,107.045364 156.038910,107.115662 
	C156.110199,107.416176 155.837585,107.666809 155.284393,107.957809 
z"/>
<path fill="#2D3343" opacity="1.000000" stroke="none" 
	d="
M51.684128,146.020477 
	C51.219837,146.310745 50.432205,146.629074 49.321419,146.971375 
	C49.785774,146.679733 50.573280,146.364136 51.684128,146.020477 
z"/>
<path fill="#313244" opacity="1.000000" stroke="none" 
	d="
M121.276398,66.162674 
	C121.137016,65.920135 121.087624,65.441757 121.067139,65.201645 
	C121.343475,64.180519 121.640289,63.399517 121.963989,62.299446 
	C123.196884,53.986465 129.631821,52.131371 136.628876,53.262573 
	C137.857010,53.461128 138.827133,55.255638 139.968445,56.699306 
	C138.922195,58.037163 137.823898,58.988804 136.394104,59.982147 
	C130.485657,56.550606 128.003601,58.244137 127.008011,66.596786 
	C125.583923,67.306435 124.169678,67.614479 122.395050,67.941376 
	C121.828369,67.441879 121.622078,66.923538 121.276398,66.162674 
z"/>
<path fill="#223845" opacity="1.000000" stroke="none" 
	d="
M138.543076,63.957222 
	C138.149963,63.797043 138.116364,63.622326 138.025574,63.186970 
	C140.050858,61.539585 142.133347,60.152836 144.553986,58.644051 
	C144.668762,62.288139 141.968826,63.317787 138.543076,63.957222 
z"/>
<path fill="#223845" opacity="1.000000" stroke="none" 
	d="
M155.636612,53.987911 
	C154.005310,55.676743 152.992859,59.485634 148.958832,56.903679 
	C150.938705,55.762287 153.106674,54.872559 155.636612,53.987911 
z"/>
<path fill="#2D3343" opacity="1.000000" stroke="none" 
	d="
M263.762939,69.994194 
	C267.155396,72.474411 267.003418,75.576248 264.792206,77.862640 
	C263.626404,79.068069 260.065918,79.599609 258.850952,78.709595 
	C257.247406,77.534874 255.785172,74.399460 256.225769,72.583298 
	C257.052032,69.177429 260.184692,68.586288 263.762939,69.994194 
z"/>
<path fill="#2A3646" opacity="1.000000" stroke="none" 
	d="
M156.812012,97.583176 
	C150.425476,100.374611 147.153992,99.488464 145.978424,94.415955 
	C149.492035,95.119141 153.018082,96.229401 156.812012,97.583176 
z"/>
<path fill="#2A3646" opacity="1.000000" stroke="none" 
	d="
M134.208954,87.342804 
	C134.027679,87.205956 134.480270,87.101295 134.710754,87.130074 
	C134.941223,87.158852 135.047577,87.553871 135.109619,87.748795 
	C134.906876,87.796280 134.646393,87.641594 134.208954,87.342804 
z"/>
<path fill="#A8D3DD" opacity="1.000000" stroke="none" 
	d="
M154.183350,77.026909 
	C150.293396,80.214790 149.067551,79.713844 147.424835,73.718277 
	C147.645462,72.816925 147.740677,72.411079 147.835892,72.005241 
	C147.835892,72.005241 147.974182,71.586205 148.424774,71.300095 
	C150.509705,71.115730 152.144073,71.217476 153.778427,71.319221 
	C153.778427,71.319221 153.774124,71.217224 153.866989,71.535637 
	C154.034348,73.578339 154.108841,75.302620 154.183350,77.026909 
z"/>
<path fill="#233B4A" opacity="1.000000" stroke="none" 
	d="
M153.712097,70.992050 
	C152.144073,71.217476 150.509705,71.115730 148.463181,71.082840 
	C149.650101,67.934410 151.462585,67.169434 153.712097,70.992050 
z"/>
<path fill="#233B4A" opacity="1.000000" stroke="none" 
	d="
M154.512207,76.955215 
	C154.108841,75.302620 154.034348,73.578339 153.816071,71.539200 
	C156.690292,72.567909 158.505447,74.159874 154.512207,76.955215 
z"/>
<path fill="#233B4A" opacity="1.000000" stroke="none" 
	d="
M147.688568,72.265121 
	C147.740677,72.411079 147.645462,72.816925 147.287094,73.412628 
	C147.196381,73.243332 147.368805,72.884163 147.688568,72.265121 
z"/>
</svg>